<?xml version="1.0" encoding="UTF-8" standalone="no"?>
<svg width="167px" height="499px" viewBox="0 0 167 499" version="1.1" xmlns="http://www.w3.org/2000/svg" xmlns:xlink="http://www.w3.org/1999/xlink" xmlns:sketch="http://www.bohemiancoding.com/sketch/ns">
    <defs>
        <circle id="path-1" cx="20" cy="20" r="20"></circle>
        <circle id="path-2" cx="20" cy="20" r="20"></circle>
        <circle id="path-3" cx="20" cy="20" r="20"></circle>
        <circle id="path-4" cx="20" cy="20.103047" r="20"></circle>
    </defs>
    <g id="Page-1" stroke="none" stroke-width="1" fill="none" fill-rule="evenodd" sketch:type="MSPage">
        <g id="Body-size" sketch:type="MSArtboardGroup">
            <path d="M97.9612585,64.8831017 C97.9612585,64.8831017 97.5080331,71.0817484 98.8677048,73.2955506 C100.227376,75.5093529 107.025735,79.4941969 109.745078,80.8224782 C112.464422,82.1507596 122.435346,87.4638849 126.061139,88.7921663 C129.686931,90.1204476 129.233707,88.3494053 136.938514,92.6810342 C144.64332,97.0126631 146.405856,101.979004 147.312303,113.048015 C148.218751,124.117026 146.002988,121.9992 146.00299,128.640606 C146.002992,135.282013 148.269109,140.152378 148.269111,150.778628 C148.269113,161.404879 148.722332,160.962119 150.082005,165.389723 C151.441678,169.817328 156.427139,180.443578 156.427141,194.611912 C156.427143,208.780247 155.973914,220.292019 155.973916,231.36103 C155.973917,242.430041 155.52069,246.857645 156.42714,251.28525 C157.333589,255.712854 156.880362,260.140459 156.880363,265.010824 C156.880365,269.881189 155.52069,276.522595 154.614244,278.293637 C153.707798,280.064679 148.722333,283.606762 146.002992,285.377804 C143.28365,287.148846 140.564303,288.919887 136.938514,286.706085 C134.672394,285.377804 140.564303,282.278481 140.564303,282.278481 L145.096544,275.194314 C145.096544,275.194314 145.618128,268.510848 145.096542,265.453584 C144.574957,262.39632 142.3772,262.797021 142.3772,262.797021 C142.3772,262.797021 141.017527,271.65223 138.298185,273.423272 C135.578844,275.194314 132.859499,274.751553 132.859499,273.423272 C135.578843,266.781865 136.938515,262.354261 136.938514,257.926656 C136.938512,253.499052 138.298185,249.956968 140.564305,247.743166 C142.830424,245.529364 143.736872,241.98728 142.830424,238.002436 C141.923976,234.017592 137.844958,221.6203 135.57884,215.421654 C133.312723,209.223008 130.140155,201.69608 130.140155,190.184308 C130.140155,178.672536 128.590129,173.802171 127.420812,168.046286 C126.251495,162.2904 125.607915,156.534515 124.248243,149.893108 C122.888571,143.251701 121.982125,157.420035 121.075677,163.618681 C120.169229,169.817327 118.356334,176.901495 119.716006,183.100141 C121.075677,189.298787 121.982125,192.840871 121.982125,198.153996 C121.982125,203.467121 122.435347,209.665768 122.435347,209.665768 C122.435347,209.665768 125.154691,218.520977 125.154691,222.505821 C125.154691,226.490665 127.420812,233.574832 127.42081,241.54452 C127.420808,249.514208 130.140155,264.568063 130.140154,273.423272 C130.140152,282.278481 131.499827,294.675773 130.140155,307.958587 C128.780483,321.2414 126.967588,329.211088 126.967586,335.409735 C126.967585,341.608381 127.420809,346.035985 127.42081,353.120153 C127.420812,360.20432 126.514361,364.189164 128.327258,368.616768 C130.140155,373.044373 131.046605,383.670623 131.046603,390.31203 C131.046601,396.953436 128.32726,411.564531 126.06114,424.404584 C123.795021,437.244637 121.982124,445.657086 121.982123,452.298492 C121.982123,458.939899 121.5289,466.024066 122.888571,468.237869 C124.248243,470.451671 126.061137,471.779952 128.780482,476.207557 C131.499827,480.635161 135.125615,481.077921 138.298184,482.406203 C141.470753,483.734484 142.377197,486.391047 142.377199,489.047609 C142.3772,491.704172 138.298182,493.917974 132.859497,493.917974 C127.420812,493.917974 127.42081,494.803495 122.888571,492.589693 C118.356332,490.375891 117.449885,486.833807 112.917646,484.620005 C108.385407,482.406203 102.493497,480.635188 104.759617,473.10826 C107.025736,465.581332 104.759617,465.138599 104.759617,461.596488 C104.759617,458.054378 106.572511,457.611618 106.572511,448.313648 C106.572511,439.015679 106.119287,423.961824 103.399944,412.450052 C100.6806,400.938281 99.3209303,396.953436 100.227378,385.884425 C101.133826,374.815414 101.133826,372.158851 101.133826,366.402965 C101.133826,360.64708 98.8677048,356.219476 97.961257,350.020829 C97.0548092,343.822183 96.6015868,342.936662 94.7886912,326.997286 C92.9757956,311.05791 86.1774357,301.759941 85.2709879,294.675774 C84.3645401,287.591607 82.0984206,272.980512 82.0984206,269.881189 C82.0984206,266.781866 79.8323011,268.995668 79.8323011,281.39296 C79.8323011,293.790253 77.1129577,299.988899 75.3000622,304.859264 C73.4871666,309.729629 71.2210471,315.928275 69.8613754,326.111765 C68.5017037,336.295256 68.9549276,340.72286 66.6888081,349.135309 C64.4226886,357.547757 62.1565692,361.532601 62.1565692,366.402966 C62.1565692,371.273331 63.9694647,379.685779 63.9694647,385.884426 C63.9694647,392.083072 63.5162408,404.480364 61.7033453,412.892813 C59.8904497,421.305261 58.530778,433.259793 58.530778,437.687398 C58.530778,442.115002 58.0775541,452.298492 58.0775541,458.054378 C58.0775541,463.810264 59.4372273,466.909614 58.5307795,470.008937 C57.6243317,473.10826 61.7033468,477.535864 59.4372273,481.520708 C57.1711078,485.505552 53.0920912,483.291724 50.3727479,487.276568 C47.6534045,491.261412 47.653406,491.704199 41.3082715,493.47524 C37.6824803,497.902845 32.2437918,494.360761 32.2437918,493.47524 C27.7115528,494.360761 23.6325378,490.818678 23.6325378,488.604876 C23.6325378,486.391073 24.9922097,485.505526 29.0712247,482.848963 C33.1502398,480.192401 38.588925,477.093051 39.4953743,473.108233 C40.4018237,469.123416 42.2147177,467.795108 43.1211655,465.581306 C44.0276133,463.367504 43.121167,447.428127 41.3082715,437.687397 C39.4953759,427.946667 36.3228071,415.992136 34.9631354,403.152083 C33.6034637,390.31203 34.5099115,373.929894 35.8695832,369.502289 C37.2292549,365.074685 37.6824788,360.64708 37.6824788,354.891194 L37.6824788,330.98213 C37.6824788,323.455203 33.1502398,311.500671 32.243792,299.546139 C31.3373442,287.591607 31.3373442,272.537751 32.243792,262.354261 C33.1502398,252.170771 33.1502398,250.399729 35.4163593,239.330718 C37.6824788,228.261707 38.1357027,222.505821 38.1357027,218.520977 C38.1357027,214.536133 38.5889266,212.765091 39.9485982,208.337487 C41.3082699,203.909882 41.3082699,196.825715 41.3082699,193.283632 C41.3082699,189.741548 43.1211655,185.756704 43.1211655,180.443579 C43.1211655,175.130453 41.3082715,174.244932 41.3082715,168.046286 C41.3082715,161.847639 35.8695832,156.534515 35.8695832,149.893108 C35.8695832,143.251701 34.0566876,149.450347 34.0566876,158.748317 C34.0566876,168.046286 32.243792,174.244932 31.3373442,178.229776 C30.4308964,182.21462 29.9776723,178.672536 30.8841201,187.527745 C31.7905679,196.382954 30.4308964,210.551289 28.1647769,215.864414 C25.8986575,221.17754 24.0857615,229.147227 22.2728661,234.017592 C20.4599707,238.887957 19.5535229,244.201083 22.2728663,247.743166 C24.9922097,251.28525 28.1647771,254.384573 28.1647769,258.812178 C28.1647768,263.239782 29.0712249,269.881189 29.0712247,272.980512 C29.0712246,276.079835 29.5244488,278.736398 27.711553,278.736398 C25.8986573,278.736398 23.6325379,273.423272 23.632538,270.323949 C23.632538,267.224626 21.8196424,265.453584 20.4599707,265.453584 C19.100299,265.453584 20.0067468,272.537751 20.0067468,274.308793 C20.0067468,276.079835 24.085762,281.39296 24.9922097,284.492283 C25.8986573,287.591607 25.4454337,291.13369 24.5389858,291.13369 C23.6325378,291.13369 19.100299,288.477127 19.100299,288.477127 C19.100299,288.477127 8.2229255,280.507439 8.2229255,278.293637 C8.2229255,276.079835 6.41002991,268.552907 6.41002991,268.552907 L6.41002991,259.254938 C6.41002991,252.613531 5.50358213,248.628687 6.41002992,238.002436 C7.31647772,227.376185 5.05035825,214.536133 5.05035822,208.780247 C5.0503582,203.024361 4.59713433,190.184308 6.41002991,183.100141 C8.2229255,176.015974 9.58259698,176.015974 9.58259698,165.389723 C9.58259698,154.763472 9.58259698,149.893107 10.9422687,138.824096 C12.3019404,127.755085 12.7551647,131.73993 11.8487167,122.884721 C10.9422687,114.029512 12.3019404,109.601907 14.5680598,102.9605 C16.8341793,96.3190933 25.8986559,90.1204476 30.8841203,90.1204476 C35.8695847,90.1204476 38.1357042,86.5783635 43.121167,83.4790404 C48.1066299,80.3797173 55.8114361,77.2803942 60.3436751,75.0665919 C64.8759141,72.8527897 63.5162408,64.8831017 63.5162424,60.8982577 C63.5162439,56.9134136 63.5162408,52.4858097 63.5162408,52.4858097 C63.5162408,52.4858097 58.9840004,52.0430492 57.6243302,47.6154448 C56.26466,43.1878403 55.3582122,36.1036727 58.5307795,37.431954 C58.530781,33.4471095 57.6243337,32.5615913 57.6243317,29.0195072 C57.6243298,25.4774232 56.7178839,21.0498188 62.1565707,15.2939326 C67.5952574,9.53804634 68.9549276,8.65252552 77.5661832,5.99596285 C86.1774387,3.33940017 98.4144809,11.7518486 101.58705,16.1794531 C104.759618,20.6070575 105.666063,23.7063807 105.666065,29.0195069 C105.666066,34.332633 104.759615,37.4319545 104.759615,37.4319545 C104.759615,37.4319545 107.478957,37.8747141 106.119287,41.859559 C104.759617,45.8444038 104.306392,51.0615515 101.133826,51.0615523 C101.133827,54.1608762 101.133824,51.6002875 101.133826,56.4706532 C101.133827,61.3410189 97.9612585,64.8831017 97.9612585,64.8831017 Z" id="Path-318" stroke="#D5D5D5" stroke-width="0.81" fill="#FFFFFF" sketch:type="MSShapeGroup"></path>
            <path d="M97.5573368,64.8535682 C97.5479958,64.9813222 97.5341652,65.2128142 97.5203873,65.527774 C97.463767,66.8220967 97.4654129,68.205465 97.5647322,69.5072377 C97.7000564,71.2809258 97.9996017,72.6559722 98.5225976,73.5075083 C99.7119332,75.4439713 105.414484,79.1579032 109.567325,81.1863859 C110.310806,81.5495441 115.939728,84.4407547 117.380537,85.1687957 C117.604115,85.2817696 117.823616,85.3924187 118.039442,85.5009355 C121.754106,87.3686558 124.399693,88.61483 125.921824,89.172451 C126.966106,89.5550158 127.589935,89.6868615 128.730032,89.8299997 C128.741866,89.8314853 128.741866,89.8314853 128.75369,89.8329691 C130.966975,90.1107184 132.530581,90.6675177 136.740039,93.0340678 C143.886016,97.0515238 145.948552,101.356854 146.908655,113.08107 C147.347419,118.439005 147.162715,120.525689 146.37778,123.214797 C146.355786,123.290101 146.355786,123.290101 146.333747,123.365542 C145.789754,125.228656 145.597989,126.376019 145.59799,128.640607 C145.59799,130.110727 145.705563,131.557807 145.918762,133.185166 C146.017351,133.937705 146.136364,134.718005 146.297119,135.687806 C146.380217,136.18912 146.684585,137.972149 146.736635,138.282326 C147.51593,142.926279 147.86411,146.29368 147.864111,150.778628 C147.864112,157.776994 148.041737,160.114591 148.68747,162.352787 C148.830379,162.84813 149.509921,164.906419 149.694849,165.508615 C149.871609,166.084212 151.960468,171.855268 152.698744,174.202485 C154.826132,180.966138 156.02214,187.538093 156.022141,194.611912 C156.022142,200.576777 155.957137,205.540625 155.7956,214.141112 C155.611753,223.929392 155.568915,226.809963 155.568916,231.36103 C155.568916,233.716769 155.550866,235.737273 155.512302,238.515709 C155.39709,246.816387 155.441275,248.489013 156.030369,251.36648 L156.030521,251.367218 C156.589842,254.099257 156.657581,256.246625 156.532135,261.424321 C156.490268,263.152356 156.475363,263.988411 156.475363,265.010824 C156.475365,269.407381 155.243891,276.174491 154.253721,278.109116 C153.546123,279.491641 149.782859,282.432748 145.781967,285.038432 C141.822081,287.617411 139.995225,288.097901 137.149565,286.360423 C136.675733,286.082611 136.723079,285.719195 137.325503,285.062445 C137.661933,284.695675 138.14155,284.297284 138.725472,283.885377 C139.16854,283.572831 139.644899,283.270981 140.121431,282.991817 C140.407138,282.824443 140.628488,282.702334 140.75285,282.636915 L140.905459,282.496742 L145.437699,275.412575 L145.500316,275.225824 C145.50767,275.131589 145.520453,274.95642 145.536854,274.712229 C145.564147,274.30587 145.591431,273.854355 145.616894,273.369578 C145.684898,272.074839 145.727641,270.784576 145.732835,269.578522 C145.740381,267.826295 145.667954,266.394704 145.495774,265.385473 C145.27606,264.097624 144.752915,263.242506 144.008132,262.772239 C143.461434,262.427046 142.892471,262.336339 142.403525,262.385403 C142.360133,262.389757 142.331298,262.393889 142.304557,262.398589 L142.020684,262.450346 L141.976892,262.735556 C141.964202,262.818201 141.938438,262.97551 141.899611,263.196771 C141.834676,263.566811 141.756695,263.979456 141.665691,264.423972 C141.40582,265.693327 141.094062,266.962327 140.731088,268.144308 C139.952593,270.679382 139.044303,272.454024 138.077161,273.0839 C135.786959,274.575453 133.264499,274.438552 133.264499,273.423272 L133.234297,273.576734 C136.198612,266.337042 137.343515,262.142775 137.343514,257.926656 C137.343512,253.702403 138.608354,250.220144 140.847319,248.032869 C143.259853,245.676033 144.146698,241.963014 143.225336,237.912604 C142.388485,234.233718 138.507834,222.253973 135.959218,215.282594 C135.986441,215.357057 134.727773,211.958552 134.360041,210.927257 C131.791933,203.725065 130.545155,197.786997 130.545155,190.184308 C130.545155,182.386609 129.984362,177.944477 128.537806,171.31921 C128.497482,171.134524 128.297471,170.221969 128.241881,169.966991 C128.06805,169.169667 127.939465,168.565013 127.817705,167.965656 L127.817703,167.965647 C127.393547,165.877769 127.052282,163.904651 126.524062,160.604697 C125.519848,154.331053 125.279746,152.912273 124.645013,149.811878 C124.356998,148.405047 124.100831,147.782392 123.572126,147.75692 C123.041239,147.731343 122.804343,148.253347 122.535565,149.3972 C122.195128,150.846022 121.907062,152.993508 121.435866,157.201636 C120.92724,161.744038 120.87523,162.190397 120.67495,163.560009 L120.674939,163.56008 C120.51273,164.669332 120.429335,165.171943 119.982602,167.794865 C119.55452,170.308285 119.331762,171.738351 119.143904,173.311386 C118.680808,177.18914 118.694445,180.333182 119.320411,183.186914 C120.942042,190.579815 120.863833,190.206068 121.175044,192.401813 C121.446022,194.313694 121.577125,196.133726 121.577125,198.153996 C121.577125,198.799952 121.583788,199.476922 121.596667,200.181493 C121.629951,202.00239 121.703142,203.947215 121.804266,205.923005 C121.853929,206.893348 121.90714,207.808246 121.960358,208.64007 C121.97899,208.931305 121.996295,209.191394 122.011831,209.41688 C122.021165,209.55236 122.027826,209.646069 122.031426,209.695301 C122.069098,209.852738 122.10859,209.98327 122.164011,210.169543 C122.256548,210.480564 122.359705,210.833922 122.470822,211.222902 C122.788357,212.334464 123.105903,213.50811 123.402175,214.689958 C123.6129,215.530554 123.805161,216.345336 123.974787,217.123669 C124.471598,219.403307 124.749691,221.253558 124.749691,222.505821 C124.749691,223.44756 124.868086,224.576091 125.108702,226.103989 C125.203291,226.704619 125.311834,227.340648 125.472911,228.250177 C125.517375,228.501247 125.679278,229.410217 125.677662,229.401129 C125.761652,229.873504 125.826009,230.238676 125.888712,230.600082 C126.649894,234.987373 127.015811,238.16885 127.01581,241.54452 C127.015809,244.869423 127.326136,248.119992 128.378174,257.198446 C128.43229,257.665431 128.473732,258.023792 128.51391,258.372484 C129.375284,265.8482 129.735154,269.926098 129.735154,273.423272 C129.735153,275.841974 129.782419,277.227223 130.037652,283.377595 C130.490118,294.280766 130.490119,300.562572 129.73726,307.917345 C129.485106,310.380677 129.205008,312.785161 128.886389,315.267478 C128.520512,318.117986 127.38866,326.108668 127.291278,326.841196 C126.789966,330.612174 126.562587,333.138106 126.562586,335.409735 C126.562586,337.576711 126.612191,339.515123 126.722437,342.297412 C126.732365,342.547954 126.742909,342.809431 126.755656,343.121983 C126.772542,343.534965 126.772542,343.534965 126.789537,343.949474 C126.954288,347.973143 127.01581,350.156828 127.01581,353.120153 C127.015811,354.612575 126.981863,355.883845 126.902818,357.891579 C126.695545,363.156255 126.738014,364.728213 127.377018,367.076589 C127.532489,367.647952 127.722985,368.209791 127.952459,368.770231 C129.543142,372.655126 130.641605,382.44718 130.641603,390.312029 C130.641602,394.89943 129.528363,402.477929 126.924264,417.213344 C126.839488,417.693053 126.750728,418.194385 126.652049,418.750986 C126.527193,419.454999 126.527193,419.454999 126.402474,420.157636 C126.277897,420.859363 126.277897,420.859363 126.153747,421.558827 C125.953935,422.684783 125.805798,423.521145 125.662304,424.334194 C125.629592,424.519545 123.261252,437.596766 122.772067,440.611155 C121.957313,445.631719 121.577124,449.192154 121.577123,452.298492 C121.577123,452.818717 121.574356,453.364248 121.569009,453.961367 C121.563158,454.614811 121.55619,455.17436 121.540904,456.288405 C121.432339,464.200331 121.570099,466.865004 122.543464,468.449826 C122.833457,468.92199 123.153892,469.373623 123.548577,469.876367 C123.853583,470.264879 125.265142,471.949757 125.675507,472.465881 C126.632092,473.668996 127.501925,474.899683 128.435375,476.419514 C130.05895,479.063 131.956103,480.445659 134.87945,481.570692 C135.292208,481.729539 135.499552,481.804279 136.395584,482.121952 C137.21527,482.412559 137.660916,482.578457 138.141775,482.779782 C140.813973,483.898569 141.972197,486.058677 141.972199,489.04761 C141.9722,491.45323 138.018911,493.512974 132.859497,493.512974 C131.817315,493.512974 130.963535,493.54192 129.907372,493.601067 C127.973085,493.70939 127.853287,493.713454 127.231899,493.658268 C126.138024,493.561121 125.038078,493.188902 123.066324,492.225785 C121.233238,491.330402 120.205823,490.452169 118.197483,488.326697 C116.126808,486.135254 115.039178,485.205549 113.095399,484.256097 C112.803655,484.113593 112.498643,483.968918 112.100271,483.783083 C112.016718,483.744107 111.301971,483.412067 111.091547,483.313508 C105.381437,480.638997 103.590801,478.395342 105.147422,473.225016 C106.429104,468.967904 106.429104,467.05162 105.652203,464.369945 C105.61932,464.256563 105.61932,464.256563 105.58682,464.144183 C105.280342,463.081733 105.164617,462.465424 105.164617,461.596488 C105.164617,460.796669 105.256417,460.137042 105.454511,459.357949 C105.538774,459.026544 105.950273,457.623367 106.057632,457.216953 C106.666362,454.912576 106.977511,452.341531 106.977511,448.313648 C106.977511,434.642017 106.07956,422.031979 103.794096,412.356945 C103.708934,411.996431 102.307304,406.152343 101.979642,404.713128 C101.42212,402.264282 101.059443,400.401294 100.804761,398.597519 C100.268139,394.796926 100.207464,391.089788 100.631027,385.91748 C101.429601,376.165763 101.538826,373.498172 101.538826,366.402965 C101.538826,364.165549 101.222259,362.069174 100.563825,359.393698 C100.449101,358.927528 100.3241,358.442142 100.1688,357.855672 C100.077898,357.51239 99.7519485,356.295762 99.7547199,356.306145 C99.0294663,353.589011 98.6482665,351.919866 98.3619949,349.962228 C98.168315,348.637769 98.007292,347.620707 97.7376881,345.98399 C97.7247521,345.905471 97.7247521,345.905471 97.7118154,345.826988 C96.7990204,340.289835 96.2988927,336.691502 95.1910968,326.951517 C94.4625693,320.546144 92.9645515,314.969784 90.5799488,308.695924 C89.9384678,307.008196 87.8131727,301.76718 87.4660794,300.861794 C86.449245,298.209403 85.8902346,296.324372 85.6727127,294.624371 C85.5168595,293.406331 85.3153552,291.920606 85.0427231,289.966608 C84.9351252,289.195436 84.8204377,288.379469 84.665208,287.279308 C84.6626126,287.260914 84.3580732,285.104188 84.2698652,284.478151 C84.2266408,284.171296 84.2266408,284.171296 84.1834484,283.86429 C83.0256312,275.631771 82.5034206,271.44942 82.5034206,269.881189 C82.5034206,268.922683 82.3251807,268.313246 81.809424,268.229271 C81.2823379,268.143451 80.9151193,268.686345 80.5807846,269.698855 C79.8783349,271.826176 79.4273011,275.865201 79.4273011,281.39296 C79.4273011,289.33281 78.4004568,294.994037 76.3906934,300.747786 C76.1652102,301.393321 75.9324049,302.030087 75.6361732,302.818682 C75.5837473,302.958245 75.0645393,304.33103 74.9205043,304.717981 C72.0280583,312.488571 70.585468,317.628318 69.4599378,326.058166 C69.0243491,329.320582 68.9217559,330.360691 68.406487,336.156672 C68.2564394,337.844476 68.1461155,338.966153 68.0127441,340.097285 C67.648109,343.189782 67.143717,345.889501 66.2977481,349.029966 L66.2959004,349.037082 C65.6764631,351.336344 62.2865134,361.555263 61.9342051,363.958228 C61.8127967,364.78631 61.7515692,365.591459 61.7515692,366.402966 C61.7515692,368.43025 61.9248806,370.031643 62.6613957,375.697795 C62.791846,376.701374 62.8826645,377.415322 62.969185,378.126108 C63.3667604,381.392281 63.5644647,383.792506 63.5644647,385.884426 C63.5644647,394.97157 62.8170401,405.802412 61.3074342,412.807493 C59.6229354,420.624137 58.125778,432.763659 58.125778,437.687398 C58.125778,439.498517 58.0841149,441.133351 57.8993442,447.360771 C57.8820786,447.942683 57.868321,448.410322 57.8552506,448.861008 C57.7312376,453.137133 57.6725541,455.87681 57.6725541,458.054378 C57.6725541,459.911426 57.7948522,461.46349 58.0580037,463.598654 C58.5520508,467.607263 58.5875285,468.372117 58.1420632,469.89525 C57.7786187,471.137938 57.9712312,472.076043 58.8798013,474.846837 C59.4394152,476.553447 59.6701676,477.474918 59.7196186,478.496316 C59.7699089,479.535049 59.5753929,480.458477 59.0851735,481.320501 C58.203723,482.870482 57.2840976,483.383847 54.9695631,484.007589 C54.5735942,484.114298 54.4524611,484.147403 54.256678,484.203656 C52.3104072,484.762865 51.1021367,485.489247 50.0382198,487.048279 C50.0718883,486.998942 49.1813887,488.311052 48.9694577,488.615933 C48.6244485,489.112259 48.3581128,489.471657 48.1029308,489.779711 C47.3051766,490.742753 46.529694,491.288604 45.1186556,491.847245 C44.2271117,492.200215 43.0669597,492.563878 41.1993904,493.085151 L41.0760573,493.119575 L40.99493,493.218643 C39.4942341,495.051205 37.5634759,495.575145 35.5124482,495.074226 C34.0655854,494.720861 32.6487918,493.752003 32.6487918,493.47524 L32.6487918,492.983453 L32.1661303,493.077756 C28.3545128,493.82248 24.0375378,490.960734 24.0375378,488.604876 C24.0375378,486.813216 24.6597348,486.205378 29.2922492,483.188335 C29.6129403,482.979477 31.6552158,481.670783 32.2622734,481.272162 C36.8814198,478.239022 39.2616608,475.961548 39.8902858,473.198066 C40.2751082,471.506359 40.8180482,470.252676 41.6533763,468.892599 C41.8526314,468.568173 42.5330758,467.521564 42.6430589,467.345745 C43.0186944,466.745256 43.2822504,466.256719 43.4959645,465.734768 C44.4796633,463.332297 43.4729338,447.104736 41.7064342,437.613293 C41.3572324,435.737024 40.9501247,433.728911 40.382973,431.049731 C40.2327079,430.33989 39.1859505,425.44744 38.8742684,423.96498 C37.1015365,415.533297 36.0356528,409.434397 35.3658836,403.109435 C34.1280007,391.419493 34.7387429,374.56435 36.2567392,369.621181 C37.5694313,365.34656 38.0874788,360.994207 38.0874788,354.891194 L38.0874788,330.98213 C38.0874788,327.552687 37.818356,326.178156 35.2797312,315.007061 C33.7744829,308.383289 32.9899487,304.030094 32.6476328,299.515518 L32.6477628,299.517284 C31.7428032,287.582328 31.7428032,272.550584 32.6471971,262.390169 C32.6312237,262.569621 33.1516024,256.621092 33.275944,255.310941 C33.4070955,253.929036 33.528466,252.789421 33.6639085,251.688351 C34.0652603,248.425589 34.6348608,245.16728 35.8131297,239.411947 C37.8033402,229.690632 38.5407027,223.516296 38.5407027,218.520977 C38.5407027,214.892669 38.8333911,213.34864 40.3357543,208.456378 C40.8808287,206.68141 41.2426238,204.404968 41.458288,201.701174 C41.6649781,199.109889 41.7132699,196.9083 41.7132699,193.283632 C41.7132699,191.886641 41.8253851,191.256862 42.6106288,187.613065 C43.2474559,184.657972 43.5261655,182.729357 43.5261655,180.443579 C43.5261655,178.355809 43.306147,177.04152 42.7287498,174.921566 C42.6671271,174.69594 42.6671271,174.69594 42.6054239,174.470352 C41.9569826,172.094834 41.7132715,170.606804 41.7132715,168.046286 C41.7132715,165.811141 41.0977804,163.712921 39.7636396,160.726101 C39.5506108,160.249181 39.4360422,160.000227 38.9563717,158.96541 C36.9739408,154.688614 36.2745832,152.591534 36.2745832,149.893108 C36.2745832,148.190707 36.1693914,147.240147 35.8996597,146.910767 C35.5586718,146.494372 35.1575974,146.716994 34.9373766,147.136511 C34.8118437,147.375648 34.6895852,147.749597 34.569395,148.248612 C34.0381031,150.454473 33.6516876,154.512539 33.6516876,158.748317 C33.6516876,164.068324 33.0924098,168.591019 32.0494698,173.388161 C31.7863938,174.598214 30.9697813,178.019716 30.9424326,178.139944 C30.7941519,178.791802 30.6517785,179.271921 30.4996591,179.672778 C30.4247846,179.870083 30.2066284,180.368929 30.1744708,180.453371 C29.8702649,181.252183 29.9020693,181.911134 30.4812254,187.568987 C31.3812605,196.361549 30.027936,210.463745 27.7922462,215.705525 C26.8730787,217.860597 26.0227819,220.407189 24.883944,224.237415 C24.7374526,224.730106 23.6644222,228.389649 23.3582127,229.405291 C22.7913267,231.28555 22.3329493,232.695208 21.8933082,233.876309 C19.6617588,239.871394 19.4315204,244.707237 21.9516198,247.989795 C22.2523479,248.381509 22.5601962,248.77093 22.9909215,249.307641 C23.0955486,249.438013 23.4542472,249.883978 23.5106473,249.954193 C23.7140963,250.207474 23.8718484,250.404835 24.0232889,250.595929 C26.675173,253.942199 27.759777,256.077382 27.7597769,258.812178 C27.7597769,260.337588 27.8607965,262.155081 28.0602318,264.608734 C28.1042892,265.150771 28.151624,265.70753 28.214529,266.4296 C28.5991418,270.844466 28.6662248,271.734639 28.6662247,272.980512 C28.6662247,273.419273 28.673328,273.796696 28.6915421,274.49361 C28.7369722,276.231878 28.7265272,276.835605 28.5983062,277.427115 C28.4573655,278.077302 28.2093308,278.331398 27.711553,278.331398 C26.3026677,278.331398 24.0375379,273.431548 24.037538,270.323949 C24.037538,267.344086 22.3143883,265.048584 20.4599707,265.048584 C19.362241,265.048584 19.1883679,266.67923 19.3524766,270.09939 C19.3771133,270.612839 19.4093058,271.141186 19.4546951,271.806307 C19.4547698,271.807402 19.5379151,272.998713 19.5563258,273.286483 C19.5869139,273.764595 19.6017468,274.087525 19.6017468,274.308793 C19.6017468,275.23863 19.984891,275.975194 22.2381375,279.83923 C22.3728709,280.07028 22.4894735,280.271297 22.5999463,280.463216 C23.6879594,282.353363 24.3114183,283.607308 24.6034933,284.60597 C25.3846684,287.276961 25.0774249,290.72869 24.5389858,290.72869 C24.2794561,290.72869 23.3430735,290.322128 22.0851137,289.666705 C21.9498656,289.596238 21.8114353,289.523255 21.6701814,289.447986 C21.1283608,289.15927 20.5683893,288.849623 20.0224475,288.539943 C19.6949397,288.354168 19.4451718,288.209829 19.3051001,288.127726 C19.2556769,288.088897 19.097356,287.971823 18.8753347,287.805924 C18.5048378,287.52908 18.0918828,287.216817 17.6471118,286.875853 C16.3765342,285.901821 15.1060617,284.893394 13.9210912,283.904599 C13.467064,283.525737 13.033624,283.156317 12.623661,282.798179 C10.1293194,280.619157 8.6279255,278.943228 8.6279255,278.293637 C8.6279255,277.435742 8.37945388,275.822565 7.94576739,273.646822 C7.87245601,273.279029 7.79461893,272.899367 7.71283429,272.509871 C7.51398266,271.56285 7.30100197,270.600555 7.08802418,269.672951 C7.01348048,269.348283 6.94425239,269.051102 6.88210851,268.787667 C6.84478029,268.629429 6.81813846,268.517731 6.80377027,268.458073 L6.81502991,259.254938 C6.81502991,257.61288 6.76729304,256.188399 6.65595592,253.975676 C6.64478233,253.753611 6.63465022,253.555165 6.61306765,253.133981 C6.3117803,247.247349 6.3117803,243.919253 6.81356442,238.036859 C7.01823311,235.637536 7.07239049,233.021318 6.99620634,230.150516 C6.90807745,226.829607 6.67162016,223.541553 6.24042785,218.954276 C5.39692881,209.98064 5.45535823,210.665796 5.45535822,208.780247 C5.45535822,208.001745 5.45285119,207.698731 5.43015993,205.36746 C5.38579908,200.809884 5.39342254,198.036971 5.49794118,194.954153 C5.66611115,189.993914 6.07518415,186.042202 6.80238614,183.200548 C7.12084973,181.956103 7.43632533,180.879876 7.82166839,179.682091 C7.86486149,179.547831 8.52656384,177.540297 8.69710041,176.984966 C9.63627485,173.926659 9.98759698,171.130122 9.98759698,165.389723 C9.98759698,158.388057 10.0102001,155.936245 10.1390367,152.725643 C10.3070101,148.539753 10.6597559,144.44588 11.3442474,138.873474 C11.802902,135.139591 12.6500434,130.106386 12.6839296,129.706091 C12.7918887,128.430781 12.7267881,127.485542 12.2516114,122.843479 C11.4692056,115.200055 12.095496,111.461084 14.9513611,103.091287 C17.0248944,97.0142999 25.6752,90.5254476 30.8841203,90.5254476 C33.222855,90.5254476 35.0616428,89.819744 37.2353775,88.2934419 C37.9020745,87.8253162 40.8791214,85.4959552 41.7865807,84.8536542 C42.3066988,84.4855139 42.8168241,84.1451243 43.3349929,83.8229932 L43.3265102,83.8281238 C45.3717436,82.5568021 47.9433015,81.2325033 51.3538456,79.6417701 C52.3400644,79.1817816 59.019759,76.164 60.5214282,75.4304996 C63.0443847,74.1981448 64.030296,71.4080628 64.107352,67.1298115 C64.1264361,66.0702371 64.0974262,65.1094023 64.0163461,63.475729 C63.9359398,61.855633 63.9212421,61.4984669 63.9212424,60.8982578 C63.9212426,60.3530409 63.9212426,60.3530409 63.9212427,59.8041648 C63.9212428,56.7304553 63.9212428,56.7304553 63.9212418,54.2993561 C63.9212411,52.8400178 63.9212411,52.8400178 63.9212408,52.4858094 L63.9212406,52.1184466 L63.5556184,52.0827285 C63.3823296,52.0657997 63.0627302,52.0091277 62.6465483,51.8911417 C61.9487034,51.6933053 61.2508481,51.3917339 60.6016788,50.9664591 C59.3877335,50.1711959 58.4847051,49.0375344 58.0114863,47.4965533 C57.2810122,45.1178511 56.7829656,42.3354005 56.7829658,40.3652423 C56.7829659,39.2945151 56.9281734,38.4965803 57.2034257,38.0540196 C57.4518942,37.6545229 57.7922423,37.5618092 58.3743706,37.805533 L58.9357793,38.040582 L58.9357795,37.4319542 C58.9357802,35.732318 58.8106013,34.7030521 58.4750701,32.9821824 C58.4488931,32.8480896 58.4488931,32.8480896 58.4229124,32.7148027 C58.1356454,31.2381289 58.0293325,30.3717786 58.0293317,29.019507 C58.0293315,28.6474316 58.0229515,28.3730667 58.0008221,27.6366916 C57.8452955,22.4614211 58.6167957,19.6298527 62.4509453,15.5720846 C67.9069227,9.7978994 69.2398178,8.98847153 77.685573,6.3829655 C84.8023661,4.18744284 96.9662518,10.4260507 101.257839,16.4153463 C104.324612,20.6953029 105.261063,23.6892988 105.261065,29.019507 C105.261065,31.3223934 105.092827,33.3768196 104.812771,35.1551527 C104.715063,35.7755863 104.610566,36.3166361 104.506337,36.7748365 C104.444449,37.0469005 104.396948,37.2292006 104.370899,37.3182677 L104.242276,37.7580551 L104.694531,37.8316907 C104.850524,37.8570893 105.115442,37.9548587 105.380414,38.1619425 C106.132081,38.7493938 106.377015,39.8500795 105.735986,41.7287726 C105.50684,42.4003396 105.304461,43.0909032 105.023037,44.1276 C104.975232,44.3037048 104.92192,44.5014635 104.821834,44.8729343 C103.657827,49.1854978 102.853795,50.6565518 101.133826,50.6565523 L100.728826,50.6565524 L100.728826,51.0615525 C100.728826,52.5425603 100.728826,52.5425603 100.728826,52.9655515 C100.728826,53.0317306 100.728826,53.0317306 100.728826,53.1019616 C100.728825,53.7467482 100.728825,53.7467482 100.728826,56.4706533 C100.728826,58.5288025 100.152329,60.4999592 99.1898095,62.313391 C98.8522169,62.9494311 98.4906166,63.5196807 98.1296545,64.0150397 C97.9149418,64.3096964 97.7499844,64.5119547 97.659577,64.612892 L97.5674104,64.7157934 L97.5573368,64.8535682 L97.5573368,64.8535682 Z M98.3651802,64.9126352 L98.26294,65.1533114 C98.3708181,65.0328685 98.5528602,64.8096621 98.7842898,64.4920645 C99.1668981,63.9669996 99.5488683,63.3646265 99.9052747,62.6931403 C100.925611,60.7707806 101.538826,58.6740748 101.538826,56.4706531 C101.538825,53.7467482 101.538825,53.7467482 101.538826,53.1019625 C101.538826,53.0317315 101.538826,53.0317315 101.538826,52.9655524 C101.538826,52.5425602 101.538826,52.5425602 101.538826,51.0615521 L101.133826,51.4665523 C103.418515,51.4665517 104.332467,49.7943884 105.603849,45.0840085 C105.704072,44.7120297 105.757159,44.5151066 105.804747,44.3398041 C106.082002,43.31846 106.280318,42.6417638 106.502588,41.9903454 C107.248422,39.8044969 106.922295,38.3389431 105.879196,37.5237297 C105.491526,37.2207535 105.103802,37.0776613 104.8247,37.0322183 L105.148332,37.5456414 C105.178936,37.4410011 105.230578,37.2428048 105.29616,36.9545013 C105.40438,36.4787558 105.512331,35.9198247 105.612909,35.2811605 C105.899385,33.4620644 106.071065,31.365609 106.071065,29.0195067 C106.071063,23.5221998 105.08291,20.3629049 101.91626,15.9435598 C97.442527,9.70006415 84.9516149,3.29373115 77.4467933,5.60896019 C68.8703016,8.25479824 67.4162448,9.13780404 61.862196,15.0157805 C57.8568559,19.2547233 57.0297857,22.2902456 57.1911876,27.6610226 C57.2130593,28.3888213 57.2193315,28.6585517 57.2193317,29.0195075 C57.2193325,30.4322613 57.3314863,31.3462094 57.6278177,32.8694777 C57.6539245,33.0034119 57.6539245,33.0034119 57.6800412,33.1371953 C58.006457,34.8113143 58.1257801,35.7924321 58.1257795,37.4319539 L58.6871885,37.0583751 C57.7511817,36.6664904 56.9822415,36.8759564 56.515607,37.6262282 C56.1421678,38.2266574 55.9729659,39.1564447 55.9729658,40.3652422 C55.9729656,42.4248953 56.4847761,45.2842414 57.2371741,47.7343363 C57.7684178,49.4642682 58.7919836,50.7492525 60.1578089,51.6440132 C60.880857,52.1176865 61.6532347,52.4514619 62.4256227,52.6704311 C62.8915807,52.8025284 63.25809,52.8675186 63.4768633,52.8888908 L63.1112408,52.48581 C63.1112411,52.8400182 63.1112411,52.8400182 63.1112418,54.2993565 C63.1112428,56.7304554 63.1112428,56.7304554 63.1112427,59.8041646 C63.1112426,60.3530406 63.1112426,60.3530406 63.1112424,60.8982575 C63.1112421,61.5180199 63.1260687,61.8783165 63.2073418,63.5158803 C63.287567,65.1323278 63.3161478,66.0789497 63.2974833,67.1152248 C63.2253937,71.1177378 62.3325767,73.6443673 60.165922,74.7026842 C58.6772997,75.4298117 52.0074188,78.4431596 51.0114593,78.9076913 C47.5739918,80.5109821 44.9775599,81.8480905 42.9073412,83.1350876 L42.9158239,83.1299571 C42.3748957,83.4660941 41.8514325,83.8153837 41.3186208,84.1925086 C40.3895695,84.8500924 37.4141284,87.178197 36.769914,87.6305363 C34.7218351,89.0686083 33.0364249,89.7154476 30.8841203,89.7154476 C25.3210657,89.7154476 16.3679044,96.4314811 14.1847585,102.829714 C11.2943923,111.300625 10.649758,115.149109 11.445822,122.925962 C11.9145539,127.505065 11.9786157,128.435221 11.8768164,129.637767 C11.8463493,129.997671 11.0027615,135.009764 10.54029,138.774719 C9.85323189,144.36802 9.49860787,148.483691 9.32968809,152.693165 C9.20025884,155.918536 9.17759698,158.376715 9.17759698,165.389723 C9.17759698,171.054833 8.83611415,173.773048 7.92278837,176.747182 C7.75513745,177.293117 7.09602592,179.292791 7.05058917,179.434025 C6.66051884,180.646504 6.34052189,181.738155 6.01767368,182.999734 C5.2726295,185.911108 4.85840216,189.912612 4.6884063,194.926706 C4.5833776,198.024569 4.575729,200.806626 4.62019829,205.375344 C4.64285204,207.70276 4.64535822,208.005672 4.64535822,208.780247 C4.64535823,210.706077 4.58481825,209.996172 5.43398269,219.03008 C5.86361523,223.600763 6.09894895,226.873194 6.18649141,230.172004 C6.2619262,233.014569 6.20837817,235.60135 6.00649543,237.968014 C5.50111533,243.892564 5.50111533,247.255071 5.80412649,253.175384 C5.82570812,253.59655 5.83582336,253.794666 5.84697935,254.016381 C5.95769123,256.216678 6.00502991,257.629277 6.00502991,259.254938 L6.00502991,268.552907 C6.03024786,268.705692 6.0567182,268.816672 6.09374702,268.973641 C6.15553155,269.235552 6.22439512,269.531168 6.29856551,269.85421 C6.51048513,270.777206 6.72240184,271.734693 6.92012111,272.676322 C7.00135696,273.063204 7.07864254,273.440176 7.15139455,273.805162 C7.57401857,275.925407 7.8179255,277.508949 7.8179255,278.293637 C7.8179255,279.306126 9.34011352,281.005266 12.090761,283.408193 C12.5055192,283.77052 12.9435817,284.143881 13.4021333,284.526517 C14.5965883,285.523226 15.8755002,286.538353 17.154307,287.518693 C17.6018205,287.861759 18.0174155,288.176019 18.390489,288.454788 C18.61461,288.622256 18.7749622,288.740832 18.8609345,288.803822 C19.0386912,288.910462 19.2917184,289.056684 19.6228016,289.244488 C20.1745114,289.55744 20.740518,289.870424 21.2892674,290.162832 C21.4326773,290.239249 21.5733156,290.313397 21.7108411,290.385051 C23.1386524,291.12897 24.0823097,291.53869 24.5389858,291.53869 C25.9513801,291.53869 26.3068942,287.544665 25.380926,284.378597 C25.064931,283.298148 24.4215879,282.00421 23.3019512,280.059125 C23.1906404,279.865751 23.073303,279.663467 22.9378594,279.431199 C20.8551655,275.859639 20.4117468,275.007203 20.4117468,274.308793 C20.4117468,274.065357 20.3963087,273.72925 20.3646732,273.234768 C20.346086,272.944239 20.2627408,271.750064 20.2628156,271.751159 C20.2177656,271.091012 20.1858768,270.567648 20.1615458,270.060568 C20.038602,267.498321 20.2134445,265.858584 20.4599707,265.858584 C21.8083353,265.858584 23.227538,267.749181 23.227538,270.323949 C23.2275379,273.826131 25.6847086,279.141398 27.711553,279.141398 C28.636263,279.141398 29.1751922,278.5893 29.3899211,277.598712 C29.5379798,276.915688 29.54879,276.29085 29.5012656,274.472447 C29.4832272,273.782255 29.4762247,273.41019 29.4762247,272.980512 C29.4762248,271.69896 29.4094006,270.812221 29.0214727,266.359301 C28.9586918,265.638656 28.9114782,265.083323 28.8675693,264.543112 C28.6697722,262.109614 28.5697769,260.31055 28.5697769,258.812178 C28.569777,255.845175 27.4146601,253.571179 24.6581117,250.092839 C24.505388,249.900125 24.3466142,249.701486 24.1421478,249.446938 C24.0854786,249.376389 23.7269344,248.930615 23.6226455,248.800665 C23.1952501,248.268103 22.8906017,247.88273 22.5941127,247.496538 C20.2908513,244.496422 20.5088524,239.917606 22.652424,234.158875 C23.0992424,232.958492 23.5623152,231.534394 24.1337324,229.639105 C24.4410161,228.6199 25.5146641,224.958251 25.6603517,224.468264 C26.7909269,220.665827 27.6335063,218.142349 28.5373077,216.023304 C30.8338567,210.638834 32.1998753,196.40436 31.2870148,187.486504 C30.7318566,182.06309 30.6977004,181.355413 30.9314386,180.741641 C30.9542367,180.681776 31.1726459,180.182352 31.256963,179.960164 C31.4229082,179.522874 31.5759178,179.006888 31.7322558,178.319608 C31.7579157,178.206805 32.5757949,174.779995 32.8409798,173.560242 C33.8954496,168.710068 34.4616876,164.131087 34.4616876,158.748317 C34.4616876,154.571646 34.8422663,150.574878 35.3568757,148.43828 C35.4626948,147.998932 35.5670798,147.679653 35.6545667,147.512992 C35.6495901,147.522473 35.4461302,147.635406 35.2729767,147.423961 C35.3644079,147.535611 35.4645832,148.44084 35.4645832,149.893108 C35.4645832,152.747636 36.1906882,154.92492 38.2214829,159.306054 C38.6993075,160.336889 38.8132173,160.584412 39.0240661,161.056451 C40.3156299,163.947951 40.9032715,165.951232 40.9032715,168.046286 C40.9032715,170.688203 41.1581062,172.244151 41.8240131,174.683653 C41.8859163,174.909973 41.8859163,174.909973 41.9472189,175.134426 C42.5073084,177.190833 42.7161655,178.43845 42.7161655,180.443579 C42.7161655,182.659198 42.4445318,184.53885 41.8188066,187.442426 C41.0177667,191.159522 40.9032699,191.80268 40.9032699,193.283632 C40.9032699,196.887705 40.8553308,199.073214 40.6508525,201.63677 C40.4394747,204.286825 40.0861572,206.509925 39.5614422,208.218595 C38.0374394,213.181324 37.7307027,214.799462 37.7307027,218.520977 C37.7307027,223.456142 36.9996197,229.577896 35.0195888,239.249489 C33.8373799,245.024067 33.2643791,248.301826 32.859968,251.589459 C32.7235189,252.698712 32.6013789,253.845552 32.4695675,255.234411 C32.3448951,256.548047 31.8241363,262.500921 31.8403869,262.318353 C30.9318852,272.524919 30.9318852,287.600885 31.8399513,299.57676 L31.8398212,299.574994 C32.1860383,304.141069 32.9764057,308.526632 34.4898696,315.186556 C37.0068243,326.262294 37.2774788,327.644647 37.2774788,330.98213 L37.2774788,354.891194 C37.2774788,360.919818 36.7686012,365.195129 35.4824272,369.383397 C33.9263831,374.450465 33.3120133,391.405719 34.5603872,403.194731 C35.2336404,409.552595 36.3036901,415.675333 38.0815984,424.131636 C38.3936438,425.615824 39.440562,430.509026 39.5905338,431.217481 C40.1564279,433.89072 40.562348,435.892975 40.9101087,437.761501 C42.6457932,447.087374 43.6471254,463.227935 42.7463666,465.427843 C42.5526638,465.90092 42.3096071,466.35146 41.9563499,466.916175 C41.8520994,467.082829 41.1691912,468.133228 40.9631613,468.468685 C40.0841226,469.899931 39.5063722,471.233993 39.1004629,473.018401 C38.5357211,475.501047 36.2615298,477.67705 31.8176748,480.595086 C31.2152976,480.990634 29.1747689,482.298208 28.8502002,482.509592 C23.9650936,485.691142 23.2275378,486.411676 23.2275378,488.604876 C23.2275378,491.514704 28.0450508,494.70826 32.3214533,493.872725 L31.8387918,493.47524 C31.8387918,494.261103 33.5442082,495.427334 35.3202717,495.861099 C37.6583607,496.432126 39.9108938,495.820868 41.6216129,493.731838 L41.4171525,493.86533 C43.3101261,493.336967 44.4922462,492.966417 45.4168233,492.60037 C46.9509897,491.992981 47.8392855,491.367723 48.7267104,490.296431 C48.9989192,489.967822 49.2776585,489.591686 49.6345548,489.07826 C49.8495224,488.76901 50.7434831,487.4518 50.707276,487.504857 C51.6484829,486.12564 52.6993546,485.493883 54.48036,484.982159 C54.6701727,484.927621 54.7890913,484.895122 55.18033,484.789687 C57.6850783,484.114684 58.7735154,483.507083 59.7892812,481.720916 C60.3595071,480.718206 60.5860674,479.642653 60.5286709,478.457145 C60.4746189,477.340715 60.231011,476.367907 59.649478,474.594453 C58.8006265,472.005778 58.622486,471.138158 58.9194959,470.122623 C59.4095915,468.44689 59.3721337,467.639347 58.8619211,463.499574 C58.6024729,461.394459 58.4825541,459.872589 58.4825541,458.054378 C58.4825541,455.88711 58.5411195,453.152951 58.6649102,448.884489 C58.6779746,448.43401 58.6917272,447.96654 58.7089879,447.384794 C58.8941279,441.144927 58.935778,439.510603 58.935778,437.687398 C58.935778,432.826131 60.4260682,420.742291 62.0992564,412.978132 C63.6236286,405.90453 64.3744647,395.024253 64.3744647,385.884426 C64.3744647,383.752405 64.1744632,381.324292 63.7732499,378.028233 C63.6864101,377.314823 63.5953478,376.598959 63.4646382,375.593385 C62.7341391,369.973515 62.5615692,368.378974 62.5615692,366.402966 C62.5615692,365.631658 62.6198164,364.865701 62.7356372,364.07573 C63.0757543,361.755917 66.4421979,351.607856 67.0798682,349.240651 L67.0817158,349.233535 C67.9364965,346.060615 68.4480873,343.322365 68.8171715,340.192135 C68.9516483,339.051628 69.062627,337.923294 69.2133049,336.228399 C69.7274366,330.44521 69.8294006,329.411479 70.262813,326.165364 C71.379083,317.804872 72.8064637,312.719314 75.67962,305.000547 C75.8227675,304.615979 76.3413488,303.244852 76.394439,303.103521 C76.6926997,302.309524 76.9275298,301.66722 77.1553863,301.01489 C79.1941845,295.178018 80.2373011,289.427077 80.2373011,281.39296 C80.2373011,275.943951 80.6796413,271.982777 81.3499371,269.952832 C81.4763181,269.570096 81.6032506,269.287647 81.7168706,269.119672 C81.767916,269.044206 81.7690858,269.043369 81.6792548,269.028743 C81.589945,269.014202 81.5897284,269.013908 81.6123319,269.091194 C81.663569,269.266384 81.6934206,269.537983 81.6934206,269.881189 C81.6934206,271.508319 82.2131613,275.67089 83.3813422,283.977098 C83.4245504,284.284216 83.4245504,284.284216 83.4677877,284.591163 C83.5560158,285.217342 83.860572,287.374188 83.8631524,287.392476 C84.018329,288.49226 84.1329647,289.307858 84.2404941,290.078539 C84.5127377,292.029753 84.7138789,293.512801 84.8692631,294.727176 C85.0967859,296.505336 85.6717098,298.444029 86.7097531,301.151744 C87.0606997,302.06718 89.1854125,307.30676 89.8227955,308.983707 C92.1851699,315.199084 93.66626,320.712431 94.3862856,327.043054 C95.4956048,336.796432 95.9975961,340.408173 96.9126021,345.958737 C96.9255322,346.037181 96.9255322,346.037181 96.9384585,346.115641 C97.2073378,347.74796 97.367679,348.760715 97.560519,350.079431 C97.8523793,352.075286 98.2394244,353.770026 98.9721187,356.515036 C98.9696185,356.505669 99.295242,357.72108 99.385788,358.063016 C99.5399705,358.645269 99.6638519,359.126307 99.7772932,359.587263 C100.421436,362.204666 100.728826,364.240274 100.728826,366.402965 C100.728826,373.476089 100.620504,376.121625 99.8237292,385.85137 C99.3955181,391.080434 99.4571646,394.84693 100.002716,398.710763 C100.261016,400.540156 100.627734,402.423905 101.189852,404.892937 C101.518739,406.337536 102.921606,412.186777 103.005792,412.54316 C105.273253,422.141983 106.167511,434.700165 106.167511,448.313648 C106.167511,452.273901 105.864749,454.775646 105.274496,457.010078 C105.171235,457.400975 104.758311,458.809014 104.669489,459.158348 C104.455618,459.999492 104.354617,460.725231 104.354617,461.596488 C104.354617,462.556692 104.482836,463.239538 104.808553,464.368684 C104.8414,464.482265 104.8414,464.482265 104.874195,464.59534 C105.60804,467.128399 105.60804,468.885363 104.371812,472.991504 C102.667417,478.65266 104.718861,481.223105 110.747977,484.047034 C110.959794,484.146245 111.675351,484.478661 111.757844,484.517143 C112.152213,484.70111 112.453237,484.843894 112.739892,484.983913 C114.572979,485.879296 115.600394,486.75753 117.608734,488.883001 C119.679409,491.074444 120.767039,492.004149 122.710818,492.953601 C124.76373,493.956359 125.949279,494.357546 127.160245,494.465093 C127.839621,494.525428 127.962141,494.521272 129.952663,494.4098 C130.994911,494.351432 131.834299,494.322974 132.859497,494.322974 C138.407497,494.322974 142.782201,492.043665 142.782199,489.047609 C142.782197,485.757387 141.459621,483.29076 138.454593,482.032624 C137.955859,481.823816 137.499452,481.653911 136.666249,481.358513 C135.778106,481.043636 135.573609,480.969923 135.170374,480.81474 C132.399927,479.74855 130.645068,478.469595 129.125589,475.995599 C128.17444,474.446949 127.285816,473.189676 126.309527,471.961779 C125.88997,471.434095 124.480566,469.751788 124.185697,469.376189 C123.80894,468.896282 123.506019,468.469332 123.233678,468.025911 C122.386683,466.646842 122.246146,463.928455 122.350827,456.299518 C122.366131,455.184223 122.37311,454.623747 122.378976,453.96862 C122.384344,453.369219 122.387123,452.821315 122.387123,452.298492 C122.387124,449.244354 122.763224,445.722217 123.571607,440.740906 C124.059396,437.735117 126.42602,424.667372 126.459976,424.474974 C126.603417,423.662222 126.751515,422.826085 126.951286,421.700359 C127.075426,421.000952 127.075426,421.000952 127.200006,420.29921 C127.324733,419.596521 127.324733,419.596521 127.449612,418.892385 C127.548315,418.335647 127.6371,417.834172 127.721904,417.354306 C130.336976,402.556799 131.451602,394.96886 131.451603,390.31203 C131.451605,382.348207 130.343805,372.472915 128.702057,368.463306 C128.485193,367.933663 128.30537,367.403303 128.1586,366.863917 C127.549675,364.626085 127.508422,363.099116 127.712191,357.923444 C127.791621,355.905937 127.825811,354.625595 127.82581,353.120152 C127.82581,350.143129 127.764028,347.950222 127.598859,343.916336 C127.581862,343.50176 127.581862,343.50176 127.564983,343.088978 C127.552248,342.776713 127.541716,342.515533 127.531802,342.265342 C127.421943,339.492821 127.372586,337.564103 127.372586,335.409735 C127.372587,333.181906 127.597233,330.686342 128.094214,326.947938 C128.190886,326.220746 129.323088,318.2276 129.689798,315.3706 C130.009263,312.881688 130.290156,310.470379 130.54305,307.999828 C131.300937,300.595932 131.300936,294.283674 130.846955,283.34401 C130.592309,277.207765 130.545153,275.825749 130.545154,273.423272 C130.545154,269.883935 130.183645,265.787465 129.318586,258.279766 C129.278385,257.93087 129.236924,257.57235 129.18279,257.105205 C128.135334,248.066294 127.825809,244.824127 127.82581,241.54452 C127.825811,238.112746 127.455239,234.890798 126.686789,230.461618 C126.623861,230.098916 126.559324,229.732724 126.475154,229.259333 C126.476707,229.268067 126.314881,228.359529 126.270499,228.108925 C126.110248,227.204055 126.002455,226.57242 125.908841,225.977981 C125.674243,224.4883 125.559691,223.396398 125.559691,222.505821 C125.559691,221.180997 125.27449,219.283449 124.76621,216.951191 C124.594697,216.164198 124.400532,215.341348 124.187863,214.492998 C123.889279,213.301927 123.569479,212.119948 123.249667,211.000413 C123.137714,210.608509 123.033733,210.252326 122.940377,209.938554 C122.884263,209.74995 122.844087,209.617161 122.822503,209.546876 C122.835787,209.588613 122.82917,209.495532 122.819915,209.361205 C122.804469,209.137013 122.787251,208.878242 122.768705,208.588354 C122.715698,207.759826 122.662686,206.848337 122.613207,205.881603 C122.512505,203.914058 122.439637,201.977812 122.406532,200.16669 C122.39374,199.466879 122.387125,198.794813 122.387125,198.153996 C122.387125,196.095277 122.253287,194.237283 121.977029,192.288145 C121.661461,190.061659 121.740632,190.440008 120.1116,183.013367 C119.50818,180.262416 119.49491,177.202989 119.948189,173.407436 C120.134003,171.851514 120.355163,170.431711 120.781104,167.930864 C121.229155,165.3002 121.312882,164.795585 121.476415,163.677282 L121.476426,163.677211 C121.67871,162.293897 121.730546,161.849027 122.240835,157.291771 C122.70762,153.123045 122.994268,150.986126 123.324089,149.582484 C123.420003,149.174299 123.513924,148.868194 123.601935,148.67426 C123.644368,148.580758 123.652584,148.571736 123.533147,148.565982 C123.430469,148.561035 123.458151,148.595002 123.515795,148.735113 C123.622148,148.993621 123.735275,149.406761 123.851473,149.974337 C124.482924,153.058702 124.722102,154.472028 125.724244,160.732723 C126.254124,164.043047 126.596946,166.025167 127.023917,168.126905 L127.023919,168.126915 C127.146575,168.730682 127.275891,169.338774 127.450471,170.139533 C127.50618,170.395059 127.706227,171.307778 127.746449,171.491995 C129.18145,178.064336 129.735155,182.450327 129.735155,190.184308 C129.735155,197.891163 131.000279,203.916609 133.597092,211.199304 C133.96679,212.236111 135.227184,215.639278 135.198462,215.560713 C137.736042,222.501904 141.608291,234.45571 142.435513,238.092268 C143.297568,241.881958 142.479817,245.305693 140.28129,247.453463 C137.874709,249.804485 136.533512,253.496958 136.533514,257.926656 C136.533515,262.012295 135.412299,266.119785 132.4847,273.269809 L132.454499,273.423272 C132.454499,275.359728 135.789088,275.540706 138.51921,273.762643 C139.700683,272.993178 140.672433,271.094548 141.5054,268.382091 C141.876817,267.172618 142.194537,265.879348 142.459232,264.586431 C142.551825,264.134153 142.631214,263.71406 142.69742,263.336771 C142.737278,263.109634 142.763971,262.946659 142.777509,262.858486 L142.449844,263.195453 C142.446803,263.195832 142.463199,263.193483 142.484399,263.191355 C142.808727,263.15881 143.202673,263.221615 143.575678,263.457136 C144.115575,263.798035 144.514489,264.450088 144.697311,265.521695 C144.85978,266.474006 144.930202,267.865979 144.922842,269.575033 C144.917711,270.766596 144.875382,272.044379 144.808009,273.327092 C144.782762,273.807766 144.755714,274.255375 144.728675,274.657949 C144.712477,274.899117 144.699906,275.071387 144.692771,275.162803 L144.755388,274.976052 L140.223148,282.06022 L140.375756,281.920047 C140.241083,281.990889 140.00912,282.118853 139.711997,282.292915 C139.217147,282.582811 138.722122,282.896488 138.258566,283.223487 C137.631383,283.665911 137.110421,284.098645 136.72859,284.514909 C135.827306,285.49747 135.703034,286.451357 136.733713,287.055487 C139.924785,289.00394 142.02588,288.45132 146.224016,285.717175 C150.381173,283.00972 154.171622,280.047368 154.974767,278.478158 C156.031919,276.412664 157.285365,269.524811 157.285363,265.010824 C157.285363,263.996989 157.300185,263.165601 157.341898,261.44394 C157.468831,256.204825 157.399819,254.01708 156.82391,251.20402 L156.823758,251.203282 C156.251618,248.408629 156.207991,246.757096 156.322224,238.526951 C156.360835,235.745088 156.378916,233.721175 156.378916,231.36103 C156.378915,226.817058 156.421716,223.938939 156.605457,214.156323 C156.767083,205.551115 156.832142,200.583131 156.832141,194.611912 C156.83214,187.446948 155.621778,180.796122 153.471425,173.959452 C152.725957,171.58937 150.638349,165.821771 150.469161,165.270832 C150.279962,164.654729 149.603443,162.605595 149.465728,162.128255 C148.847473,159.985302 148.674112,157.70382 148.674111,150.778628 C148.67411,146.242332 148.321582,142.832876 147.535466,138.148275 C147.483104,137.836241 147.178924,136.054311 147.096215,135.555347 C146.936838,134.593858 146.819125,133.822078 146.721899,133.079948 C146.513004,131.485435 146.40799,130.072789 146.40799,128.640606 C146.407989,126.460188 146.587377,125.386881 147.111282,123.592568 C147.133263,123.517322 147.133263,123.517322 147.155332,123.44176 C147.969066,120.653989 148.162532,118.468326 147.715952,113.01496 C146.736013,101.048519 144.556649,96.4993209 137.136988,92.3280006 C132.840972,89.9127874 131.179055,89.3209797 128.854548,89.0292728 C128.842736,89.0277905 128.842736,89.0277905 128.830935,89.0263091 C127.74634,88.8901392 127.178145,88.7700515 126.200453,88.4118815 C124.718327,87.8689161 122.08851,86.6301702 118.403304,84.7772608 C118.187968,84.6689908 117.968948,84.5585839 117.745842,84.4458488 C116.311511,83.7210812 110.674989,80.8259669 109.922831,80.4585705 C105.917642,78.502209 100.289596,74.8368004 99.2128119,73.083593 C98.7758128,72.3720759 98.4985569,71.0993476 98.3723849,69.4456176 C98.2758996,68.1809886 98.2742896,66.8278582 98.3296134,65.5631737 C98.343029,65.2564956 98.3563921,65.032828 98.3651802,64.9126352 L98.3651802,64.9126352 Z" id="Shape" fill="#D5D5D5" sketch:type="MSShapeGroup"></path>
            <path d="M34,130.709525 L123.29546,130.709525 C123.74281,130.709525 124.10546,130.346876 124.10546,129.899525 C124.10546,129.452175 123.74281,129.089525 123.29546,129.089525 L34,129.089525 C33.5526494,129.089525 33.19,129.452175 33.19,129.899525 C33.19,130.346876 33.5526494,130.709525 34,130.709525 Z M42,178.894579 L119.501286,178.894579 C119.948637,178.894579 120.311286,178.531929 120.311286,178.084579 C120.311286,177.637228 119.948637,177.274579 119.501286,177.274579 L42,177.274579 C41.5526494,177.274579 41.19,177.637228 41.19,178.084579 C41.19,178.531929 41.5526494,178.894579 42,178.894579 Z M37.4532239,227.78074 L126.285108,227.78074 C126.732458,227.78074 127.095108,227.418091 127.095108,226.97074 C127.095108,226.52339 126.732458,226.16074 126.285108,226.16074 L37.4532239,226.16074 C37.0058732,226.16074 36.6432239,226.52339 36.6432239,226.97074 C36.6432239,227.418091 37.0058732,227.78074 37.4532239,227.78074 Z M98.3097857,74.2529463 C99.5553972,76.281037 105.295201,80.0192305 109.521867,82.0837739 C110.26101,82.4448129 115.886132,85.3340717 117.33018,86.0637494 C117.553994,86.1768426 117.773735,86.2876129 117.989807,86.3962531 C121.719199,88.2713789 124.372671,89.5212671 125.914805,90.086216 C126.992382,90.4809782 127.644027,90.6187029 128.811876,90.7653253 C128.823727,90.766813 128.823727,90.766813 128.835557,90.7682976 C130.99323,91.039068 132.50768,91.5783631 136.673859,93.9205816 C143.682994,97.8611055 145.687116,102.044502 146.637301,113.647605 C147.072158,118.957824 146.891834,120.995018 146.121299,123.634795 C146.099343,123.70997 146.099343,123.70997 146.077275,123.78551 C145.523238,125.683024 145.325285,126.867416 145.325285,129.174087 C145.325286,130.663176 145.434139,132.127473 145.649489,133.771256 C145.74876,134.528999 145.868422,135.313558 146.029866,136.287516 C146.113159,136.790004 146.417621,138.573583 146.469515,138.882832 C147.2454,143.506461 147.591406,146.852835 147.591406,151.312109 C147.591407,158.347061 147.771164,160.712716 148.430636,162.998534 C148.576142,163.502877 149.257195,165.565745 149.439988,166.160987 C149.620534,166.748913 151.710019,172.521697 152.444699,174.857482 C154.560604,181.584627 155.749436,188.117146 155.749436,195.145393 C155.749437,201.10708 155.68446,206.068861 155.522966,214.666987 C155.339066,224.458098 155.29621,227.339895 155.296211,231.89451 C155.296211,234.248047 155.278176,236.266845 155.239636,239.043569 C155.123935,247.379512 155.168398,249.062686 155.765894,251.981189 C155.855618,252.41945 156.283633,252.701995 156.721894,252.612271 C157.160154,252.522547 157.442699,252.094532 157.352976,251.656271 C156.789085,248.901917 156.745737,247.260932 156.85948,239.066052 C156.898115,236.282477 156.916211,234.256858 156.916211,231.89451 C156.91621,227.354086 156.958993,224.477193 157.142681,214.697409 C157.304351,206.08984 157.369437,201.119788 157.369436,195.145393 C157.369436,187.934856 156.151897,181.244594 153.99006,174.371416 C153.240996,171.989901 151.154014,166.224031 150.988612,165.68542 C150.797278,165.062364 150.122271,163.017808 149.987152,162.54947 C149.382637,160.454138 149.211407,158.200713 149.211406,151.312108 C149.211406,146.750138 148.856703,143.319654 148.067176,138.61473 C148.014658,138.301767 147.710572,136.520387 147.628058,136.022597 C147.46937,135.065265 147.352307,134.297744 147.255763,133.560819 C147.049019,131.98273 146.945286,130.5873 146.945285,129.174086 C146.945285,127.035752 147.118483,125.999474 147.632344,124.23956 C147.654297,124.164413 147.654297,124.164413 147.676404,124.088721 C148.504537,121.25162 148.702383,119.016467 148.251896,113.515385 C147.262039,101.427831 145.02426,96.7566996 137.467759,92.5084473 C133.128463,90.0689025 131.417391,89.4595905 129.037272,89.1609049 C129.025466,89.1594233 129.025466,89.1594233 129.013682,89.157944 C127.956838,89.0252583 127.41646,88.9110496 126.472063,88.565077 C125.009939,88.0294394 122.388007,86.7944077 118.71753,84.9489037 C118.502439,84.8407571 118.283659,84.7304714 118.06079,84.6178556 C116.629698,83.8947247 110.989376,80.9976585 110.23288,80.6281431 C106.301516,78.7078422 100.710722,75.0666951 99.6902143,73.4051155 C99.4560923,73.0239207 98.9572794,72.9046946 98.5760846,73.1388166 C98.1948898,73.3729386 98.0756637,73.8717515 98.3097857,74.2529463 Z" id="Shape" fill="#5D5C5C" sketch:type="MSShapeGroup"></path>
            <g id="Group-Copy" sketch:type="MSLayerGroup" transform="translate(79.000000, 58.000000)">
                <g id="Oval-40">
                    <use fill="#000000" fill-rule="evenodd" sketch:type="MSShapeGroup" xlink:href="#path-1"></use>
                    <use fill="none" xlink:href="#path-1"></use>
                </g>
                <path d="M20,38 C29.9349149,38 38,29.9477166 38,20 C38,10.0522834 29.9349149,2 20,2 C10.0650851,2 2,10.0522834 2,20 C2,29.9477166 10.0650851,38 20,38 L20,38 Z M20,36 C11.1273802,36 3.94594595,28.8299649 3.94594595,20 C3.94594595,11.1700351 11.1273802,4 20,4 C28.8726198,4 36.0540541,11.1700351 36.0540541,20 C36.0540541,28.8299649 28.8726198,36 20,36 L20,36 Z" id="Shape" fill="#FFFFFF" sketch:type="MSShapeGroup"></path>
                <path d="M18.9035041,23.1709651 C18.5277185,23.1709651 18.1773291,23.1074888 17.8523254,22.9805342 C17.5273217,22.8535796 17.2454868,22.6783849 17.0068122,22.4549449 C16.7681376,22.2315048 16.5802476,21.9699823 16.4431367,21.6703695 C16.3060257,21.3707567 16.2374713,21.0432188 16.2374713,20.687746 C16.2374713,20.3221168 16.318721,19.9895008 16.4812228,19.689888 C16.6437247,19.3902752 16.8747786,19.1338308 17.1743914,18.9205471 C17.4740042,18.7072634 17.8294717,18.5396859 18.2408045,18.4178095 C18.6521373,18.2959331 19.1015498,18.2349958 19.5890554,18.2349958 C19.9749973,18.2349958 20.3660115,18.2705426 20.7621098,18.3416371 C21.1582081,18.4127317 21.5085975,18.5092157 21.8132884,18.6310921 L21.8132884,17.9912443 C21.8132884,17.3412368 21.6304766,16.8308871 21.2648474,16.4601797 C20.8992182,16.0894724 20.3812513,15.9041214 19.7109311,15.9041214 C18.9085782,15.9041214 18.0656125,16.213886 17.1820086,16.8334243 L16.7402089,15.9650593 C17.7660019,15.2744264 18.7968576,14.9291152 19.8328069,14.9291152 C20.8789127,14.9291152 21.6939488,15.208411 22.2779399,15.7670112 C22.8619309,16.3256113 23.1539221,17.1127179 23.1539221,18.1283545 L23.1539221,21.3732973 C23.1539221,21.6881447 23.2961091,21.8506441 23.5804873,21.8608004 L23.5804873,23.0186204 C23.4382982,23.0389331 23.3215017,23.0541675 23.2300944,23.0643238 C23.1386871,23.0744802 23.0422031,23.0795583 22.9406395,23.0795583 C22.6765739,23.0795583 22.4658325,23.0008476 22.3084088,22.843424 C22.1509851,22.6860003 22.0570402,22.4955713 22.0265711,22.2721312 L21.9961021,21.7084557 C21.6406293,22.1858049 21.1912168,22.5488896 20.6478512,22.7977205 C20.1044857,23.0465515 19.5230424,23.1709651 18.9035041,23.1709651 L18.9035041,23.1709651 Z M19.253897,22.1654899 C19.7312462,22.1654899 20.1755805,22.076623 20.5869134,21.8988866 C20.9982462,21.7211502 21.3105498,21.4850182 21.5238335,21.1904836 C21.7168044,20.9975127 21.8132884,20.7994665 21.8132884,20.5963392 L21.8132884,19.4232847 C21.163281,19.1693756 20.4878928,19.0424229 19.7871035,19.0424229 C19.1167833,19.0424229 18.5708868,19.1846099 18.1493977,19.4689882 C17.7279085,19.7533664 17.517167,20.1240682 17.517167,20.5811047 C17.517167,20.8045448 17.5603309,21.0127471 17.64666,21.2057181 C17.7329892,21.3986891 17.8548637,21.5662666 18.0122874,21.7084557 C18.1697111,21.8506448 18.355062,21.9623632 18.5683457,22.0436141 C18.7816294,22.124865 19.0101442,22.1654899 19.253897,22.1654899 L19.253897,22.1654899 Z" id="a" fill="#FFFFFF" sketch:type="MSShapeGroup"></path>
            </g>
            <g id="Group-5" sketch:type="MSLayerGroup" transform="translate(27.000000, 109.000000)">
                <g id="Oval-40">
                    <use fill="#000000" fill-rule="evenodd" sketch:type="MSShapeGroup" xlink:href="#path-2"></use>
                    <use fill="none" xlink:href="#path-2"></use>
                </g>
                <path d="M20,38 C29.9349149,38 38,29.9477166 38,20 C38,10.0522834 29.9349149,2 20,2 C10.0650851,2 2,10.0522834 2,20 C2,29.9477166 10.0650851,38 20,38 L20,38 Z M20,36 C11.1273802,36 3.94594595,28.8299649 3.94594595,20 C3.94594595,11.1700351 11.1273802,4 20,4 C28.8726198,4 36.0540541,11.1700351 36.0540541,20 C36.0540541,28.8299649 28.8726198,36 20,36 L20,36 Z" id="Shape" fill="#FFFFFF" sketch:type="MSShapeGroup"></path>
                <path d="M20.8136399,24.5301997 C20.2349503,24.5301997 19.7084456,24.3879011 19.2341099,24.1032997 C18.7597742,23.8186983 18.3850547,23.448722 18.10994,22.9933597 L18.10994,24.3878997 L17,24.3878997 L17,14 L18.25224,14 L18.25224,18.4397599 C18.5653015,17.9559375 18.9495077,17.566988 19.4048699,17.2728999 C19.8602322,16.9788118 20.3914802,16.8317699 20.9986299,16.8317699 C21.5109124,16.8317699 21.9710111,16.9408655 22.3789398,17.1590599 C22.7868685,17.3772543 23.1355,17.6642231 23.4248448,18.0199749 C23.7141896,18.3757266 23.937124,18.7883925 24.0936548,19.2579848 C24.2501855,19.7275772 24.3284498,20.2090207 24.3284498,20.7023298 C24.3284498,21.224099 24.2383273,21.7174008 24.0580798,22.1822497 C23.8778322,22.6470987 23.6311814,23.0526496 23.3181198,23.3989147 C23.0050582,23.7451798 22.6327103,24.0202903 22.2010648,24.2242547 C21.7694194,24.428219 21.306949,24.5301997 20.8136399,24.5301997 L20.8136399,24.5301997 Z M20.5005799,23.4487197 C20.8705617,23.4487197 21.2120783,23.3728271 21.5251399,23.2210397 C21.8382014,23.0692523 22.1085687,22.865291 22.3362498,22.6091497 C22.563931,22.3530085 22.7394325,22.0612964 22.8627598,21.7340048 C22.9860871,21.4067131 23.0477498,21.0628249 23.0477498,20.7023298 C23.0477498,20.3418347 22.9884587,19.9932032 22.8698748,19.6564248 C22.7512909,19.3196465 22.5852759,19.0231911 22.3718248,18.7670498 C22.1583738,18.5109086 21.9022363,18.3045756 21.6034049,18.1480449 C21.3045734,17.9915141 20.974915,17.9132499 20.6144199,17.9132499 C20.3487919,17.9132499 20.0973978,17.9606827 19.8602299,18.0555499 C19.6230621,18.150417 19.4024993,18.2761141 19.1985349,18.4326449 C18.9945706,18.5891756 18.8143257,18.7717921 18.6577949,18.9804998 C18.5012642,19.1892075 18.3660805,19.412142 18.25224,19.6493098 L18.25224,21.7980397 C18.2996735,22.0352076 18.4016542,22.2533987 18.5581849,22.4526197 C18.7147157,22.6518407 18.8997039,22.8249706 19.1131549,22.9720147 C19.326606,23.1190588 19.5542837,23.2352693 19.7961949,23.3206497 C20.0381061,23.4060301 20.2728988,23.4487197 20.5005799,23.4487197 L20.5005799,23.4487197 Z" id="b" fill="#FFFFFF" sketch:type="MSShapeGroup"></path>
            </g>
            <g id="Group-6-Copy" sketch:type="MSLayerGroup" transform="translate(27.000000, 158.000000)">
                <g id="Oval-40">
                    <use fill="#000000" fill-rule="evenodd" sketch:type="MSShapeGroup" xlink:href="#path-3"></use>
                    <use fill="none" xlink:href="#path-3"></use>
                </g>
                <path d="M20,38 C29.9349149,38 38,29.9477166 38,20 C38,10.0522834 29.9349149,2 20,2 C10.0650851,2 2,10.0522834 2,20 C2,29.9477166 10.0650851,38 20,38 L20,38 Z M20,36 C11.1273802,36 3.94594595,28.8299649 3.94594595,20 C3.94594595,11.1700351 11.1273802,4 20,4 C28.8726198,4 36.0540541,11.1700351 36.0540541,20 C36.0540541,28.8299649 28.8726198,36 20,36 L20,36 Z" id="Shape" fill="#FFFFFF" sketch:type="MSShapeGroup"></path>
                <path d="M16.5698781,19.7771275 C16.5698781,19.2551942 16.6600289,18.7617374 16.8403331,18.2967423 C17.0206373,17.8317472 17.2768553,17.4260688 17.6089947,17.0796948 C17.941134,16.7333209 18.3373229,16.4581239 18.7975732,16.2540954 C19.2578234,16.0500669 19.7726317,15.9480542 20.3420135,15.9480542 C21.0822098,15.9480542 21.7203823,16.111749 22.2565501,16.4391436 C22.792718,16.7665381 23.1983964,17.2054299 23.4735976,17.7558323 L22.2494329,18.1401631 C22.059639,17.7890443 21.7939315,17.5162197 21.4523024,17.3216809 C21.1106733,17.1271421 20.7310912,17.0298742 20.3135445,17.0298742 C19.9719155,17.0298742 19.6492707,17.0986735 19.3456004,17.236274 C19.0419301,17.3738746 18.7809674,17.5660381 18.5627044,17.8127702 C18.3444413,18.0595023 18.171257,18.3489337 18.0431461,18.6810731 C17.9150352,19.0132124 17.8509807,19.3785603 17.8509807,19.7771275 C17.8509807,20.166205 17.9174076,20.5315529 18.0502633,20.8731819 C18.1831191,21.214811 18.3610482,21.5113596 18.5840561,21.7628365 C18.8070639,22.0143134 19.0680267,22.2112217 19.3669521,22.3535671 C19.6658775,22.4959126 19.98615,22.5670842 20.327779,22.5670842 C20.546042,22.5670842 20.7619294,22.5362432 20.9754475,22.4745602 C21.1889657,22.4128771 21.3835016,22.3298435 21.5590609,22.2254569 C21.7346203,22.1210702 21.8888256,22.0000784 22.0216813,21.8624778 C22.1545371,21.7248772 22.2494326,21.5754167 22.3063708,21.4140919 L23.5305355,21.7841882 C23.4166591,22.0593894 23.2577091,22.3108626 23.0536806,22.5386153 C22.8496522,22.766368 22.6100409,22.9609038 22.3348397,23.1222287 C22.0596385,23.2835535 21.7536004,23.4116625 21.4167162,23.5065595 C21.079832,23.6014564 20.7263461,23.6489042 20.356248,23.6489042 C19.7963559,23.6489042 19.28392,23.5445191 18.8189249,23.3357458 C18.3539298,23.1269725 17.9553685,22.8470306 17.6232291,22.4959119 C17.2910898,22.1447931 17.0324994,21.7343699 16.8474503,21.2646299 C16.6624013,20.79489 16.5698781,20.2990608 16.5698781,19.7771275 L16.5698781,19.7771275 Z" id="c" fill="#FFFFFF" sketch:type="MSShapeGroup"></path>
            </g>
            <g id="Group-7-Copy" sketch:type="MSLayerGroup" transform="translate(27.000000, 212.000000)">
                <g id="Oval-40-Copy">
                    <use fill="#000000" fill-rule="evenodd" sketch:type="MSShapeGroup" xlink:href="#path-4"></use>
                    <use fill="none" xlink:href="#path-4"></use>
                </g>
                <path d="M20,38.103047 C29.9349149,38.103047 38,30.0507636 38,20.103047 C38,10.1553304 29.9349149,2.10304697 20,2.10304697 C10.0650851,2.10304697 2,10.1553304 2,20.103047 C2,30.0507636 10.0650851,38.103047 20,38.103047 L20,38.103047 Z M20,36.103047 C11.1273802,36.103047 3.94594595,28.9330119 3.94594595,20.103047 C3.94594595,11.2730821 11.1273802,4.10304697 20,4.10304697 C28.8726198,4.10304697 36.0540541,11.2730821 36.0540541,20.103047 C36.0540541,28.9330119 28.8726198,36.103047 20,36.103047 L20,36.103047 Z" id="Shape-Copy" fill="#FFFFFF" sketch:type="MSShapeGroup"></path>
                <path d="M19.0947519,24.4639698 C18.5823083,24.4639698 18.1078306,24.3595847 17.6713046,24.1508114 C17.2347786,23.9420381 16.8599412,23.6620962 16.5467812,23.3109775 C16.2336213,22.9598587 15.9892652,22.5518079 15.8137059,22.0868128 C15.6381465,21.6218177 15.5503681,21.1331056 15.5503681,20.620662 C15.5503681,20.0987287 15.6334017,19.6028996 15.7994714,19.1331596 C15.9655411,18.6634196 16.1980351,18.2529964 16.4969606,17.9018777 C16.795886,17.5507589 17.1517443,17.2731895 17.5645461,17.069161 C17.9773478,16.8651325 18.430474,16.7631198 18.9239382,16.7631198 C19.5217891,16.7631198 20.0555765,16.9196975 20.5253165,17.2328574 C20.9950564,17.5460174 21.3675214,17.9255996 21.6427226,18.3716153 L21.6427226,13.9304597 L22.8953562,13.9304597 L22.8953562,22.784302 C22.8953562,23.0784825 23.02821,23.2303154 23.2939215,23.2398051 L23.2939215,24.3216251 C23.1610657,24.3406044 23.0543083,24.3548388 22.9736458,24.3643285 C22.8929834,24.3738182 22.8146946,24.3785629 22.738777,24.3785629 C22.4920449,24.3785629 22.2761576,24.2955293 22.0911085,24.1294597 C21.9060594,23.96339 21.8135363,23.7712265 21.8135363,23.5529635 L21.8135363,22.9266467 C21.5193557,23.4106212 21.1279116,23.787831 20.6391923,24.0582873 C20.1504729,24.3287436 19.6356646,24.4639698 19.0947519,24.4639698 L19.0947519,24.4639698 Z M19.3936759,23.3821498 C19.6214286,23.3821498 19.856295,23.3394468 20.0982823,23.2540396 C20.3402695,23.1686323 20.5680188,23.0500129 20.781537,22.8981777 C20.9950552,22.7463426 21.1801015,22.5684135 21.3366814,22.364385 C21.4932614,22.1603565 21.5952741,21.9444692 21.6427226,21.7167165 L21.6427226,19.5815455 C21.5573153,19.3443031 21.4292064,19.1189262 21.2583918,18.905408 C21.0875773,18.6918899 20.8954138,18.5068436 20.6818957,18.3502636 C20.4683775,18.1936836 20.2406282,18.0703194 19.998641,17.9801673 C19.7566537,17.8900152 19.5170425,17.8449398 19.2798001,17.8449398 C18.9097019,17.8449398 18.5751951,17.9232286 18.2762697,18.0798086 C17.9773443,18.2363886 17.7211263,18.4451588 17.5076082,18.7061254 C17.29409,18.967092 17.1303952,19.266013 17.0165188,19.6028972 C16.9026425,19.9397814 16.8457052,20.2837778 16.8457052,20.6348965 C16.8457052,21.0049947 16.912132,21.3584805 17.0449878,21.6953648 C17.1778435,22.032249 17.3581451,22.3240528 17.5858978,22.5707849 C17.8136505,22.817517 18.0817304,23.0144252 18.3901455,23.1615155 C18.6985606,23.3086058 19.0330674,23.3821498 19.3936759,23.3821498 L19.3936759,23.3821498 Z" id="d" fill="#FFFFFF" sketch:type="MSShapeGroup"></path>
            </g>
        </g>
    </g>
</svg>