<?xml version="1.0" encoding="UTF-8" standalone="no"?>
<svg width="15px" height="15px" viewBox="0 0 15 15" version="1.1" xmlns="http://www.w3.org/2000/svg" xmlns:xlink="http://www.w3.org/1999/xlink" xmlns:sketch="http://www.bohemiancoding.com/sketch/ns">
    <g stroke="none" stroke-width="1" fill="none" fill-rule="evenodd">
        <g transform="translate(-23.000000, -22.000000)" fill="#000000">
            <g transform="translate(23.000000, 22.000000)">
                <path d="M8.6995,7.8806 L14.2345,2.4766 C14.6295,2.0906 14.6375,1.4576 14.2515,1.0626 C13.8655,0.6676 13.2325,0.6606 12.8365,1.0456 L7.2675,6.4826 L1.6985,1.0456 C1.3035,0.6606 0.6705,0.6676 0.2845,1.0626 C-0.1015,1.4576 -0.0935,2.0906 0.3015,2.4766 L5.8365,7.8806 L0.3015,13.2846 C-0.0935,13.6696 -0.1015,14.3036 0.2845,14.6986 C0.4805,14.8996 0.7405,14.9996 1.0005,14.9996 C1.2515,14.9996 1.5035,14.9056 1.6985,14.7156 L7.2675,9.2786 L12.8365,14.7156 C13.0315,14.9056 13.2835,14.9996 13.5355,14.9996 C13.7955,14.9996 14.0555,14.8996 14.2515,14.6986 C14.6375,14.3036 14.6295,13.6696 14.2345,13.2846 L8.6995,7.8806 Z"></path>
            </g>
        </g>
    </g>
</svg>