<?xml version="1.0" encoding="utf-8"?>
<!DOCTYPE svg PUBLIC "-//W3C//DTD SVG 1.1//EN" "http://www.w3.org/Graphics/SVG/1.1/DTD/svg11.dtd">
<svg version="1.1" id="Vrstva_1" xmlns:sketch="http://www.bohemiancoding.com/sketch/ns"
	 xmlns="http://www.w3.org/2000/svg" xmlns:xlink="http://www.w3.org/1999/xlink" x="0px" y="0px" width="19.872px"
	 height="19.743px" viewBox="19.872 18.257 19.872 19.743" enable-background="new 19.872 18.257 19.872 19.743"
	 xml:space="preserve">
<g>
	<g transform="translate(20.000000, 18.000000)">
		<path d="M9.872,18.352c-1.932,0-3.704-0.671-5.108-1.785l5.19-5.19l5.121,5.12C13.656,17.654,11.846,18.352,9.872,18.352
			L9.872,18.352z M1.648,10.128c0-1.974,0.697-3.784,1.857-5.201l5.284,5.284l-5.208,5.208C2.376,13.988,1.648,12.144,1.648,10.128
			L1.648,10.128z M9.872,1.905c2.016,0,3.861,0.728,5.291,1.932L9.954,9.045L4.67,3.761C6.087,2.602,7.898,1.905,9.872,1.905
			L9.872,1.905z M18.096,10.128c0,1.974-0.697,3.784-1.857,5.202l-5.119-5.119l5.19-5.19C17.425,6.424,18.096,8.197,18.096,10.128
			L18.096,10.128z M17.406,16.498c1.457-1.719,2.338-3.94,2.338-6.37c0-2.387-0.849-4.576-2.258-6.283l1.275-1.277
			c0.322-0.322,0.322-0.843,0-1.165c-0.322-0.322-0.844-0.322-1.165,0l-1.269,1.269c-1.732-1.501-3.985-2.415-6.457-2.415
			c-2.429,0-4.65,0.881-6.37,2.336l-1.19-1.19c-0.322-0.322-0.844-0.322-1.166,0c-0.321,0.322-0.321,0.843,0,1.165l1.191,1.191
			C0.881,5.478,0,7.699,0,10.128c0,2.472,0.915,4.726,2.415,6.456l-1.269,1.27c-0.321,0.321-0.321,0.844,0,1.166
			c0.322,0.32,0.844,0.32,1.166,0l1.276-1.277C5.295,19.152,7.485,20,9.872,20c2.429,0,4.65-0.881,6.371-2.336l1.43,1.43
			c0.322,0.322,0.844,0.322,1.166,0c0.322-0.32,0.322-0.843,0-1.165L17.406,16.498z"/>
	</g>
</g>
</svg>
