<?xml version="1.0" encoding="utf-8"?>
<!DOCTYPE svg PUBLIC "-//W3C//DTD SVG 1.1//EN" "http://www.w3.org/Graphics/SVG/1.1/DTD/svg11.dtd">
<svg version="1.1" id="Vrstva_1" xmlns:sketch="http://www.bohemiancoding.com/sketch/ns"
	 xmlns="http://www.w3.org/2000/svg" xmlns:xlink="http://www.w3.org/1999/xlink" x="0px" y="0px" width="17.914px"
	 height="17.914px" viewBox="21 21.086 17.914 17.914" enable-background="new 21 21.086 17.914 17.914" xml:space="preserve">
<g>
	<g transform="translate(21.000000, 21.000000)">
		<path d="M14.824,8.911v4.835l-1.219-1.221C14.367,11.52,14.824,10.27,14.824,8.911c0-1.311-0.426-2.519-1.139-3.506l1.139-1.138
			V8.911z M8.824,14.91H4.18l1.138-1.137C6.305,14.486,7.513,14.91,8.824,14.91c1.359,0,2.609-0.457,3.615-1.219l1.22,1.219H8.824z
			 M2.824,8.911V4.076l1.219,1.22C3.281,6.302,2.824,7.552,2.824,8.911c0,1.408,0.489,2.701,1.301,3.724l-1.301,1.301V8.911z
			 M10.085,9.006l3.087-3.087c0.588,0.851,0.934,1.88,0.934,2.992c0,1.162-0.385,2.225-1.02,3.096L10.085,9.006z M8.919,10.172
			l3.001,3.001c-0.871,0.635-1.936,1.021-3.096,1.021c-1.112,0-2.141-0.348-2.992-0.935L8.919,10.172z M5.728,4.649
			c0.871-0.635,1.935-1.02,3.096-1.02c1.209,0,2.311,0.422,3.201,1.106L8.919,7.841L5.728,4.649z M7.754,9.006l-3.106,3.105
			c-0.684-0.891-1.106-1.992-1.106-3.201c0-1.161,0.385-2.225,1.02-3.096L7.754,9.006z M8.824,2.911h5.025l-1.301,1.301
			C11.523,3.4,10.232,2.911,8.824,2.911c-1.359,0-2.609,0.457-3.615,1.219l-1.22-1.219H8.824z M17.672,16.593l-0.848-0.847V2.411
			V2.267l0.773-0.773c0.321-0.322,0.321-0.844,0-1.166c-0.322-0.322-0.844-0.322-1.166,0L15.85,0.911H1.989L1.407,0.328
			c-0.322-0.322-0.844-0.322-1.166,0c-0.322,0.322-0.322,0.844,0,1.166l0.583,0.582V15.41v0.525L0.241,16.52
			c-0.322,0.321-0.322,0.842,0,1.164c0.322,0.322,0.844,0.322,1.166,0L2.18,16.91h13.479l0.847,0.849
			c0.322,0.321,0.844,0.321,1.166,0S17.994,16.914,17.672,16.593L17.672,16.593z"/>
	</g>
</g>
</svg>
