<?xml version="1.0" encoding="utf-8"?>
<!DOCTYPE svg PUBLIC "-//W3C//DTD SVG 1.1//EN" "http://www.w3.org/Graphics/SVG/1.1/DTD/svg11.dtd">
<svg version="1.1" id="Vrstva_1" xmlns:sketch="http://www.bohemiancoding.com/sketch/ns"
	 xmlns="http://www.w3.org/2000/svg" xmlns:xlink="http://www.w3.org/1999/xlink" x="0px" y="0px" width="19.747px"
	 height="20.144px" viewBox="20 19.856 19.747 20.144" enable-background="new 20 19.856 19.747 20.144" xml:space="preserve">
<g>
	<g transform="translate(20.000000, 19.000000)">
		<path d="M15.077,15.797l-3.962-3.998l2.434-2.456l3.909,6.454H15.077z M7.153,15.797l2.802-2.826l2.803,2.826H7.153z
			 M2.288,15.797L6.259,9.24l2.536,2.559l-3.962,3.998H2.288z M9.873,3.271l2.797,4.618l-2.715,2.739L7.139,7.786L9.873,3.271z
			 M19.625,16.193l-4.88-8.057l4.021-4.057c0.32-0.324,0.318-0.845-0.006-1.166c-0.322-0.32-0.845-0.318-1.164,0.006l-3.73,3.763
			l-3.287-5.429c-0.321-0.529-1.089-0.529-1.41,0L5.943,6.579l-3.628-3.66C1.995,2.595,1.473,2.593,1.15,2.913
			C0.827,3.234,0.824,3.755,1.145,4.079l3.918,3.954l-4.943,8.16c-0.332,0.55,0.063,1.252,0.705,1.252H3.2L1.145,19.52
			c-0.321,0.324-0.318,0.845,0.005,1.166c0.323,0.319,0.845,0.317,1.165-0.006l3.205-3.234h8.871l3.281,3.311
			c0.319,0.323,0.842,0.326,1.164,0.006c0.323-0.32,0.326-0.843,0.006-1.166l-2.131-2.15h2.209
			C19.563,17.445,19.958,16.743,19.625,16.193L19.625,16.193z"/>
	</g>
</g>
</svg>
