<?xml version="1.0" encoding="UTF-8" standalone="no"?>
<svg width="31px" height="24px" viewBox="0 0 31 24" version="1.1" xmlns="http://www.w3.org/2000/svg" xmlns:xlink="http://www.w3.org/1999/xlink" xmlns:sketch="http://www.bohemiancoding.com/sketch/ns">
    <g stroke="none" stroke-width="1" fill="none" fill-rule="evenodd">
        <g transform="translate(-12.000000, -16.000000)" fill="#FFFFFF">
            <path d="M42.5348391,16.478377 C42.5305229,16.4402507 42.524768,16.4042825 42.5118195,16.3690337 C42.501029,16.3359429 42.4859224,16.3071684 42.4686576,16.2776745 C42.4521123,16.2474612 42.4348475,16.2201254 42.4125472,16.1935089 C42.3888082,16.164015 42.3593143,16.1409953 42.3283817,16.1172563 C42.3125557,16.1043078 42.3010458,16.087043 42.2830617,16.0762526 C42.2729906,16.0704977 42.2614808,16.0704977 42.2506904,16.0654621 C42.218319,16.047478 42.1830702,16.0381263 42.147102,16.0280552 C42.1118531,16.0187035 42.0787624,16.0100711 42.0427942,16.0071936 C42.0312844,16.0064743 42.0204939,16 42.0075454,16 L12.5395229,16 C12.5265744,16 12.5157839,16.0064743 12.5028354,16.007913 C12.4690253,16.0100711 12.4366539,16.0187035 12.4028438,16.0273358 C12.3661562,16.0381263 12.330188,16.047478 12.2956586,16.0654621 C12.2863068,16.0704977 12.274797,16.0704977 12.2647259,16.0762526 C12.2460225,16.087043 12.2359514,16.1043078 12.2186866,16.1172563 C12.187754,16.1409953 12.1589794,16.164015 12.1352404,16.1935089 C12.1122208,16.2201254 12.094956,16.2474612 12.0784107,16.2769551 C12.0611459,16.3071684 12.0460393,16.3359429 12.0345295,16.3690337 C12.023739,16.4042825 12.0179841,16.4402507 12.0136679,16.478377 C12.0107905,16.4992385 12,16.517942 12,16.5395229 L12,38.5304771 C12,38.8282937 12.2424256,39.07 12.5395229,39.07 L42.0075454,39.07 C42.305362,39.07 42.5470683,38.8282937 42.5470683,38.5304771 L42.5470683,16.5395229 C42.5470683,16.517942 42.5377166,16.4992385 42.5348391,16.478377 L42.5348391,16.478377 Z M41.0148232,17.0790458 C39.4149579,19.4464724 34.2916483,26.3156782 27.2735341,28.7399345 C20.25542,26.3156782 15.1328297,19.4464724 13.5322451,17.0790458 L41.0148232,17.0790458 L41.0148232,17.0790458 Z M13.0797652,18.3364939 C14.5717259,20.4600561 17.6506034,24.3525341 21.8919729,27.2084088 C17.5743508,30.5851029 14.447276,34.8034528 13.0797652,36.8313396 L13.0797652,18.3364939 L13.0797652,18.3364939 Z M13.6099364,37.9909542 C14.6875435,36.3378559 18.0915734,31.4576913 22.8544818,27.8241843 C24.1737951,28.6284331 25.5931001,29.3218999 27.1023255,29.826174 C27.1030449,29.8268934 27.1044836,29.826174 27.1066417,29.8268934 C27.1598746,29.8441581 27.215985,29.8535098 27.2735341,29.8535098 C27.3296445,29.8535098 27.3857549,29.8441581 27.4397072,29.8268934 C27.4404266,29.826174 27.4418653,29.8268934 27.443304,29.826174 C28.9532488,29.3218999 30.3696763,28.6291525 31.6882703,27.8263424 C36.4511787,31.4598494 39.8544892,36.3385753 40.9328157,37.9909542 L13.6099364,37.9909542 L13.6099364,37.9909542 Z M41.4673031,36.8399719 C40.1041085,34.8156819 36.9748756,30.5922965 32.6514986,27.2105669 C36.8950262,24.3546922 39.9760617,20.4600561 41.4673031,18.3364939 L41.4673031,36.8399719 L41.4673031,36.8399719 Z"></path>
        </g>
    </g>
</svg>