<?xml version="1.0" encoding="utf-8"?>
<!DOCTYPE svg PUBLIC "-//W3C//DTD SVG 1.1//EN" "http://www.w3.org/Graphics/SVG/1.1/DTD/svg11.dtd">
<svg version="1.1" id="Vrstva_1" xmlns:sketch="http://www.bohemiancoding.com/sketch/ns"
	 xmlns="http://www.w3.org/2000/svg" xmlns:xlink="http://www.w3.org/1999/xlink" x="0px" y="0px" width="26.001px" height="16px"
	 viewBox="17 22 26.001 16" enable-background="new 17 22 26.001 16" xml:space="preserve">
<g>
	<path d="M42.992,22.302c-0.005-0.025-0.014-0.048-0.023-0.071c-0.008-0.019-0.017-0.036-0.026-0.052
		c-0.004-0.007-0.007-0.014-0.011-0.021c-0.01-0.013-0.021-0.021-0.033-0.032c-0.014-0.016-0.027-0.03-0.043-0.042
		c-0.021-0.016-0.041-0.026-0.063-0.037c-0.018-0.008-0.033-0.018-0.053-0.024c-0.026-0.009-0.053-0.012-0.082-0.015
		C42.645,22.005,42.633,22,42.619,22h-0.002l-25.233,0.043c-0.148,0-0.284,0.084-0.348,0.214c-0.063,0.131-0.043,0.286,0.051,0.397
		l4.445,5.252l-0.522,4.871c-0.014,0.133,0.044,0.262,0.153,0.34c0.068,0.049,0.148,0.073,0.229,0.073
		c0.05,0,0.102-0.009,0.15-0.029l3.084-1.27l3.831,5.933c0.064,0.101,0.173,0.166,0.295,0.174C28.765,38,28.774,38,28.785,38
		c0.109,0,0.216-0.046,0.289-0.127l13.834-15.251c0.005-0.007,0.008-0.015,0.014-0.022c0.012-0.016,0.021-0.033,0.031-0.05
		c0.012-0.021,0.021-0.042,0.029-0.065c0.006-0.018,0.01-0.034,0.012-0.053c0.004-0.026,0.006-0.051,0.004-0.076
		c0-0.011,0.004-0.02,0.002-0.03C42.998,22.316,42.993,22.311,42.992,22.302L42.992,22.302z M18.2,22.79l21.49-0.037l-17.618,4.613
		L18.2,22.79L18.2,22.79z M22.288,28.084l14.354-3.758l-12.986,5.12c-0.098,0.014-0.19,0.064-0.253,0.147l-1.488,1.96
		L22.288,28.084L22.288,28.084z M22.601,31.913l1.103-1.453l0.51,0.79L22.601,31.913L22.601,31.913z M28.837,37.002l-4.525-7.006
		l16.938-6.678L28.837,37.002L28.837,37.002z"/>
</g>
</svg>
