<?xml version="1.0" encoding="UTF-8" standalone="no"?>
<svg width="677px" height="78px" viewBox="0 0 677 78" version="1.1" xmlns="http://www.w3.org/2000/svg" xmlns:xlink="http://www.w3.org/1999/xlink" xmlns:sketch="http://www.bohemiancoding.com/sketch/ns">
    <defs>
        <linearGradient x1="0%" y1="100%" x2="97.3901565%" y2="100%" id="linearGradient-1">
            <stop stop-color="#FF0975" offset="0%"></stop>
            <stop stop-color="#FFC300" offset="100%"></stop>
        </linearGradient>
    </defs>
    <g stroke="none" stroke-width="1" fill="none" fill-rule="evenodd">
        <g transform="translate(-298.000000, -179.000000)" fill="url(#linearGradient-1)">
            <path d="M298,232.865 C298,236.435018 298.507495,239.514987 299.5225,242.105 C300.537505,244.695013 301.867492,246.882491 303.5125,248.6675 C305.157508,250.452509 306.95999,251.869995 308.92,252.92 C310.88001,253.970005 312.82249,254.792497 314.7475,255.3875 C316.67251,255.982503 318.457492,256.367499 320.1025,256.5425 C321.747508,256.717501 323.024995,256.805 323.935,256.805 C327.295017,256.805 330.077489,256.350005 332.2825,255.44 C334.487511,254.529995 336.289993,253.427506 337.69,252.1325 C339.090007,250.837494 340.157496,249.437508 340.8925,247.9325 C341.627504,246.427492 342.169998,245.045006 342.52,243.785 L341.05,243.26 C340.909999,243.890003 340.542503,244.887493 339.9475,246.2525 C339.352497,247.617507 338.460006,248.982493 337.27,250.3475 C336.079994,251.712507 334.50501,252.902495 332.545,253.9175 C330.58499,254.932505 328.170014,255.44 325.3,255.44 C322.289985,255.44 319.910009,254.740007 318.16,253.34 C316.409991,251.939993 315.080005,250.120011 314.17,247.88 C313.259995,245.639989 312.700001,243.155014 312.49,240.425 C312.279999,237.694986 312.175,234.965014 312.175,232.235 C312.175,229.294985 312.297499,226.512513 312.5425,223.8875 C312.787501,221.262487 313.312496,218.95251 314.1175,216.9575 C314.922504,214.96249 316.059993,213.370006 317.53,212.18 C319.000007,210.989994 320.994987,210.395 323.515,210.395 C325.335009,210.395 326.857494,210.797496 328.0825,211.6025 C329.307506,212.407504 329.92,213.509993 329.92,214.91 C329.92,215.190001 329.832501,215.679997 329.6575,216.38 C329.482499,217.080004 329.307501,217.814996 329.1325,218.585 C328.957499,219.355004 328.782501,220.089997 328.6075,220.79 C328.432499,221.490004 328.345,221.979999 328.345,222.26 C328.345,224.150009 329.027493,225.392497 330.3925,225.9875 C331.757507,226.582503 333.244992,226.88 334.855,226.88 C337.025011,226.88 338.704994,226.407505 339.895,225.4625 C341.085006,224.517495 341.68,222.890012 341.68,220.58 C341.68,218.829991 341.242504,217.237507 340.3675,215.8025 C339.492496,214.367493 338.267508,213.142505 336.6925,212.1275 C335.117492,211.112495 333.245011,210.325003 331.075,209.765 C328.904989,209.204997 326.490013,208.925 323.83,208.925 C319.629979,208.925 315.937516,209.694992 312.7525,211.235 C309.567484,212.775008 306.872511,214.717488 304.6675,217.0625 C302.462489,219.407512 300.800006,221.979986 299.68,224.78 C298.559994,227.580014 298,230.274987 298,232.865 L298,232.865 Z M374.02,255.44 C371.289986,255.44 369.155008,254.792506 367.615,253.4975 C366.074992,252.202494 364.937504,250.50501 364.2025,248.405 C363.467496,246.30499 363.012501,243.890014 362.8375,241.16 C362.662499,238.429986 362.575,235.665014 362.575,232.865 C362.575,230.064986 362.662499,227.317513 362.8375,224.6225 C363.012501,221.927487 363.467496,219.530011 364.2025,217.43 C364.937504,215.32999 366.074992,213.632506 367.615,212.3375 C369.155008,211.042494 371.289986,210.395 374.02,210.395 C376.750014,210.395 378.884992,211.042494 380.425,212.3375 C381.965008,213.632506 383.102496,215.32999 383.8375,217.43 C384.572504,219.530011 385.027499,221.927487 385.2025,224.6225 C385.377501,227.317513 385.465,230.064986 385.465,232.865 C385.465,235.665014 385.377501,238.429986 385.2025,241.16 C385.027499,243.890014 384.572504,246.30499 383.8375,248.405 C383.102496,250.50501 381.965008,252.202494 380.425,253.4975 C378.884992,254.792506 376.750014,255.44 374.02,255.44 L374.02,255.44 Z M374.02,208.925 C370.379982,208.925 367.002516,209.572494 363.8875,210.8675 C360.772484,212.162506 358.060012,213.894989 355.75,216.065 C353.439988,218.235011 351.637506,220.772485 350.3425,223.6775 C349.047494,226.582515 348.4,229.644984 348.4,232.865 C348.4,236.155016 349.047494,239.252485 350.3425,242.1575 C351.637506,245.062515 353.439988,247.599989 355.75,249.77 C358.060012,251.940011 360.772484,253.654994 363.8875,254.915 C367.002516,256.175006 370.379982,256.805 374.02,256.805 C377.660018,256.805 381.037484,256.175006 384.1525,254.915 C387.267516,253.654994 389.979988,251.940011 392.29,249.77 C394.600012,247.599989 396.402494,245.062515 397.6975,242.1575 C398.992506,239.252485 399.64,236.155016 399.64,232.865 C399.64,229.644984 398.992506,226.582515 397.6975,223.6775 C396.402494,220.772485 394.600012,218.235011 392.29,216.065 C389.979988,213.894989 387.267516,212.162506 384.1525,210.8675 C381.037484,209.572494 377.660018,208.925 374.02,208.925 L374.02,208.925 Z M406.99,179.735 L406.99,181.205 L414.025,181.205 L414.025,253.97 L406.99,253.97 L406.99,255.44 L433.87,255.44 L433.87,253.97 L426.835,253.97 L426.835,179.735 L406.99,179.735 Z M465.475,255.44 C462.744986,255.44 460.610008,254.792506 459.07,253.4975 C457.529992,252.202494 456.392504,250.50501 455.6575,248.405 C454.922496,246.30499 454.467501,243.890014 454.2925,241.16 C454.117499,238.429986 454.03,235.665014 454.03,232.865 C454.03,230.064986 454.117499,227.317513 454.2925,224.6225 C454.467501,221.927487 454.922496,219.530011 455.6575,217.43 C456.392504,215.32999 457.529992,213.632506 459.07,212.3375 C460.610008,211.042494 462.744986,210.395 465.475,210.395 C468.205014,210.395 470.339992,211.042494 471.88,212.3375 C473.420008,213.632506 474.557496,215.32999 475.2925,217.43 C476.027504,219.530011 476.482499,221.927487 476.6575,224.6225 C476.832501,227.317513 476.92,230.064986 476.92,232.865 C476.92,235.665014 476.832501,238.429986 476.6575,241.16 C476.482499,243.890014 476.027504,246.30499 475.2925,248.405 C474.557496,250.50501 473.420008,252.202494 471.88,253.4975 C470.339992,254.792506 468.205014,255.44 465.475,255.44 L465.475,255.44 Z M465.475,208.925 C461.834982,208.925 458.457516,209.572494 455.3425,210.8675 C452.227484,212.162506 449.515012,213.894989 447.205,216.065 C444.894988,218.235011 443.092506,220.772485 441.7975,223.6775 C440.502494,226.582515 439.855,229.644984 439.855,232.865 C439.855,236.155016 440.502494,239.252485 441.7975,242.1575 C443.092506,245.062515 444.894988,247.599989 447.205,249.77 C449.515012,251.940011 452.227484,253.654994 455.3425,254.915 C458.457516,256.175006 461.834982,256.805 465.475,256.805 C469.115018,256.805 472.492484,256.175006 475.6075,254.915 C478.722516,253.654994 481.434988,251.940011 483.745,249.77 C486.055012,247.599989 487.857494,245.062515 489.1525,242.1575 C490.447506,239.252485 491.095,236.155016 491.095,232.865 C491.095,229.644984 490.447506,226.582515 489.1525,223.6775 C487.857494,220.772485 486.055012,218.235011 483.745,216.065 C481.434988,213.894989 478.722516,212.162506 475.6075,210.8675 C472.492484,209.572494 469.115018,208.925 465.475,208.925 L465.475,208.925 Z M498.97,210.395 L498.97,211.865 L505.795,211.865 L505.795,253.97 L498.97,253.97 L498.97,255.44 L526.9,255.44 L526.9,253.97 L518.605,253.97 L518.605,227.09 C518.605,224.849989 518.937497,222.837509 519.6025,221.0525 C520.267503,219.267491 521.054995,217.745006 521.965,216.485 C522.875005,215.224994 523.854995,214.262503 524.905,213.5975 C525.955005,212.932497 526.829996,212.6 527.53,212.6 C528.160003,212.6 528.632498,212.722499 528.9475,212.9675 C529.262502,213.212501 529.489999,213.492498 529.63,213.8075 C529.770001,214.122502 529.8575,214.419999 529.8925,214.7 C529.9275,214.980001 529.945,215.12 529.945,215.12 C529.945,215.19 529.91,215.469998 529.84,215.96 C529.77,216.450002 529.682501,216.992497 529.5775,217.5875 C529.472499,218.182503 529.385,218.742497 529.315,219.2675 C529.245,219.792503 529.21,220.159999 529.21,220.37 C529.21,222.190009 529.874993,223.432497 531.205,224.0975 C532.535007,224.762503 534.004992,225.095 535.615,225.095 C537.855011,225.095 539.482495,224.500006 540.4975,223.31 C541.512505,222.119994 542.02,220.47501 542.02,218.375 C542.02,215.574986 541.110009,213.387508 539.29,211.8125 C537.469991,210.237492 535.090015,209.45 532.15,209.45 C528.649983,209.45 525.832511,210.41249 523.6975,212.3375 C521.562489,214.26251 519.865006,216.554987 518.605,219.215 L518.395,219.215 L518.395,210.395 L498.97,210.395 Z M545.275,210.395 L545.275,211.865 L552.205,211.865 L552.205,253.97 L545.275,253.97 L545.275,255.44 L573.1,255.44 L573.1,253.97 L565.015,253.97 L565.015,211.865 L573.73,211.865 L573.73,210.395 L565.015,210.395 L565.015,194.12 C565.015,192.299991 565.05,190.567508 565.12,188.9225 C565.19,187.277492 565.399998,185.825006 565.75,184.565 C566.100002,183.304994 566.694996,182.307504 567.535,181.5725 C568.375004,180.837496 569.529993,180.47 571,180.47 C572.190006,180.47 573.239995,180.767497 574.15,181.3625 C575.060005,181.957503 575.515,182.884994 575.515,184.145 C575.515,184.355001 575.48,184.704998 575.41,185.195 C575.34,185.685002 575.252501,186.227497 575.1475,186.8225 C575.042499,187.417503 574.937501,187.977497 574.8325,188.5025 C574.727499,189.027503 574.675,189.394999 574.675,189.605 C574.675,193.175018 576.529981,194.96 580.24,194.96 C581.850008,194.96 583.249994,194.400006 584.44,193.28 C585.630006,192.159994 586.225,190.795008 586.225,189.185 C586.225,187.364991 585.840004,185.807506 585.07,184.5125 C584.299996,183.217494 583.285006,182.167504 582.025,181.3625 C580.764994,180.557496 579.365008,179.962502 577.825,179.5775 C576.284992,179.192498 574.710008,179 573.1,179 C569.599982,179 566.660012,179.454995 564.28,180.365 C561.899988,181.275005 559.940008,182.517492 558.4,184.0925 C556.859992,185.667508 555.670004,187.48749 554.83,189.5525 C553.989996,191.61751 553.377502,193.804988 552.9925,196.115 C552.607498,198.425012 552.38,200.804988 552.31,203.255 C552.24,205.705012 552.205,208.084988 552.205,210.395 L545.275,210.395 Z M581.08,210.395 L581.08,211.865 L588.115,211.865 L588.115,242.21 C588.115,247.320026 589.409987,250.942489 592,253.0775 C594.590013,255.212511 598.334975,256.28 603.235,256.28 C604.775008,256.28 606.349992,256.087502 607.96,255.7025 C609.570008,255.317498 611.092493,254.722504 612.5275,253.9175 C613.962507,253.112496 615.239994,252.132506 616.36,250.9775 C617.480006,249.822494 618.319997,248.475008 618.88,246.935 L619.09,246.935 L619.09,255.44 L638.62,255.44 L638.62,253.97 L631.69,253.97 L631.69,210.395 L611.95,210.395 L611.95,211.865 L618.88,211.865 L618.88,238.955 C618.88,240.845009 618.617503,242.664991 618.0925,244.415 C617.567497,246.165009 616.832505,247.687494 615.8875,248.9825 C614.942495,250.277506 613.805007,251.309996 612.475,252.08 C611.144993,252.850004 609.675008,253.235 608.065,253.235 C605.404987,253.235 603.550005,252.307509 602.5,250.4525 C601.449995,248.597491 600.925,246.340013 600.925,243.68 L600.925,210.395 L581.08,210.395 Z M646.18,179.735 L646.18,181.205 L653.215,181.205 L653.215,253.97 L646.18,253.97 L646.18,255.44 L673.06,255.44 L673.06,253.97 L666.025,253.97 L666.025,179.735 L646.18,179.735 Z M709.285,240.215 L709.285,255.44 L710.755,255.44 C710.965001,254.879997 711.192499,254.495001 711.4375,254.285 C711.682501,254.074999 712.084997,253.97 712.645,253.97 C713.275003,253.97 714.149994,254.109999 715.27,254.39 C716.390006,254.670001 717.632493,255.002498 718.9975,255.3875 C720.362507,255.772502 721.779993,256.104999 723.25,256.385 C724.720007,256.665001 726.084994,256.805 727.345,256.805 C729.655012,256.805 731.894989,256.455004 734.065,255.755 C736.235011,255.054996 738.142492,254.057506 739.7875,252.7625 C741.432508,251.467494 742.762495,249.892509 743.7775,248.0375 C744.792505,246.182491 745.3,244.100012 745.3,241.79 C745.3,238.429983 744.32001,235.665011 742.36,233.495 C740.39999,231.324989 737.530019,229.575007 733.75,228.245 L724.825,225.2 C723.074991,224.569997 721.675005,223.922503 720.625,223.2575 C719.574995,222.592497 718.805002,221.927503 718.315,221.2625 C717.824998,220.597497 717.510001,219.950003 717.37,219.32 C717.229999,218.689997 717.16,218.130002 717.16,217.64 C717.16,215.259988 718.12249,213.457506 720.0475,212.2325 C721.97251,211.007494 724.089988,210.395 726.4,210.395 C728.570011,210.395 730.389993,210.727497 731.86,211.3925 C733.330007,212.057503 734.572495,212.967494 735.5875,214.1225 C736.602505,215.277506 737.477496,216.624992 738.2125,218.165 C738.947504,219.705008 739.664996,221.314992 740.365,222.995 L741.73,222.995 L741.73,210.185 L740.26,210.185 C740.119999,210.535002 739.945001,210.849999 739.735,211.13 C739.524999,211.410001 739.035004,211.55 738.265,211.55 C737.844998,211.55 737.267504,211.410001 736.5325,211.13 C735.797496,210.849999 734.957505,210.552502 734.0125,210.2375 C733.067495,209.922498 732.017506,209.625001 730.8625,209.345 C729.707494,209.064999 728.465007,208.925 727.135,208.925 C724.614987,208.925 722.287511,209.327496 720.1525,210.1325 C718.017489,210.937504 716.197508,212.022493 714.6925,213.3875 C713.187492,214.752507 712.015004,216.344991 711.175,218.165 C710.334996,219.985009 709.915,221.90999 709.915,223.94 C709.915,225.830009 710.229997,227.457493 710.86,228.8225 C711.490003,230.187507 712.277495,231.359995 713.2225,232.34 C714.167505,233.320005 715.199994,234.107497 716.32,234.7025 C717.440006,235.297503 718.489995,235.769998 719.47,236.12 L727.975,239.27 C729.865009,239.970003 731.352495,240.652497 732.4375,241.3175 C733.522505,241.982503 734.344997,242.664997 734.905,243.365 C735.465003,244.065003 735.832499,244.747497 736.0075,245.4125 C736.182501,246.077503 736.27,246.724997 736.27,247.355 C736.27,249.38501 735.902504,250.942495 735.1675,252.0275 C734.432496,253.112505 733.557505,253.917497 732.5425,254.4425 C731.527495,254.967503 730.495005,255.265 729.445,255.335 C728.394995,255.405 727.555003,255.44 726.925,255.44 C724.474988,255.44 722.410008,255.002504 720.73,254.1275 C719.049992,253.252496 717.615006,252.115007 716.425,250.715 C715.234994,249.314993 714.202504,247.705009 713.3275,245.885 C712.452496,244.064991 711.595004,242.17501 710.755,240.215 L709.285,240.215 Z M753.28,253.97 L753.28,255.44 L779.635,255.44 L779.635,253.97 L773.02,253.97 L773.02,231.5 C773.02,228.279984 773.369996,225.480012 774.07,223.1 C774.770004,220.719988 775.697494,218.725008 776.8525,217.115 C778.007506,215.504992 779.354992,214.297504 780.895,213.4925 C782.435008,212.687496 784.044992,212.285 785.725,212.285 C787.75501,212.285 789.364994,212.967493 790.555,214.3325 C791.745006,215.697507 792.34,217.849985 792.34,220.79 L792.34,253.97 L785.83,253.97 L785.83,255.44 L812.185,255.44 L812.185,253.97 L805.15,253.97 L805.15,224.36 C805.15,219.739977 803.872513,216.100013 801.3175,213.44 C798.762487,210.779987 795.175023,209.45 790.555,209.45 C787.404984,209.45 784.79751,209.904995 782.7325,210.815 C780.66749,211.725005 778.970007,212.792494 777.64,214.0175 C776.309993,215.242506 775.312503,216.467494 774.6475,217.6925 C773.982497,218.917506 773.510001,219.844997 773.23,220.475 L773.02,220.475 L773.02,179.735 L753.28,179.735 L753.28,181.205 L760.21,181.205 L760.21,253.97 L753.28,253.97 Z M825.31,187.82 C825.31,189.85001 826.044993,191.599993 827.515,193.07 C828.985007,194.540007 830.73499,195.275 832.765,195.275 C834.79501,195.275 836.544993,194.540007 838.015,193.07 C839.485007,191.599993 840.22,189.85001 840.22,187.82 C840.22,185.78999 839.485007,184.040007 838.015,182.57 C836.544993,181.099993 834.79501,180.365 832.765,180.365 C830.73499,180.365 828.985007,181.099993 827.515,182.57 C826.044993,184.040007 825.31,185.78999 825.31,187.82 L825.31,187.82 Z M819.325,210.395 L819.325,211.865 L826.36,211.865 L826.36,253.97 L819.325,253.97 L819.325,255.44 L846.205,255.44 L846.205,253.97 L839.17,253.97 L839.17,210.395 L819.325,210.395 Z M852.925,210.395 L852.925,211.865 L859.75,211.865 L859.75,253.97 L852.925,253.97 L852.925,255.44 L880.855,255.44 L880.855,253.97 L872.56,253.97 L872.56,227.09 C872.56,224.849989 872.892497,222.837509 873.5575,221.0525 C874.222503,219.267491 875.009995,217.745006 875.92,216.485 C876.830005,215.224994 877.809995,214.262503 878.86,213.5975 C879.910005,212.932497 880.784996,212.6 881.485,212.6 C882.115003,212.6 882.587498,212.722499 882.9025,212.9675 C883.217502,213.212501 883.444999,213.492498 883.585,213.8075 C883.725001,214.122502 883.8125,214.419999 883.8475,214.7 C883.8825,214.980001 883.9,215.12 883.9,215.12 C883.9,215.19 883.865,215.469998 883.795,215.96 C883.725,216.450002 883.637501,216.992497 883.5325,217.5875 C883.427499,218.182503 883.34,218.742497 883.27,219.2675 C883.2,219.792503 883.165,220.159999 883.165,220.37 C883.165,222.190009 883.829993,223.432497 885.16,224.0975 C886.490007,224.762503 887.959992,225.095 889.57,225.095 C891.810011,225.095 893.437495,224.500006 894.4525,223.31 C895.467505,222.119994 895.975,220.47501 895.975,218.375 C895.975,215.574986 895.065009,213.387508 893.245,211.8125 C891.424991,210.237492 889.045015,209.45 886.105,209.45 C882.604983,209.45 879.787511,210.41249 877.6525,212.3375 C875.517489,214.26251 873.820006,216.554987 872.56,219.215 L872.35,219.215 L872.35,210.395 L852.925,210.395 Z M905.845,196.85 L905.845,210.395 L898.81,210.395 L898.81,211.865 L905.845,211.865 L905.845,244.205 C905.845,245.465006 905.914999,246.829993 906.055,248.3 C906.195001,249.770007 906.737495,251.134994 907.6825,252.395 C908.627505,253.655006 910.09749,254.704996 912.0925,255.545 C914.08751,256.385004 916.904982,256.805 920.545,256.805 C921.875007,256.805 923.274993,256.682501 924.745,256.4375 C926.215007,256.192499 927.597494,255.685004 928.8925,254.915 C930.187506,254.144996 931.342495,253.042507 932.3575,251.6075 C933.372505,250.172493 934.089998,248.265012 934.51,245.885 L932.935,245.57 C932.654999,246.620005 932.287502,247.704994 931.8325,248.825 C931.377498,249.945006 930.800004,250.942496 930.1,251.8175 C929.399997,252.692504 928.577505,253.409997 927.6325,253.97 C926.687495,254.530003 925.550007,254.81 924.22,254.81 C923.029994,254.81 922.067504,254.600002 921.3325,254.18 C920.597496,253.759998 920.037502,253.182504 919.6525,252.4475 C919.267498,251.712496 919.005001,250.890005 918.865,249.98 C918.724999,249.069995 918.655,248.090005 918.655,247.04 L918.655,211.865 L930.94,211.865 L930.94,210.395 L918.655,210.395 L918.655,196.85 C917.604995,197.270002 916.537505,197.619999 915.4525,197.9 C914.367495,198.180001 913.300005,198.32 912.25,198.32 C911.199995,198.32 910.132505,198.180001 909.0475,197.9 C907.962495,197.619999 906.895005,197.270002 905.845,196.85 L905.845,196.85 Z M938.71,240.215 L938.71,255.44 L940.18,255.44 C940.390001,254.879997 940.617499,254.495001 940.8625,254.285 C941.107501,254.074999 941.509997,253.97 942.07,253.97 C942.700003,253.97 943.574994,254.109999 944.695,254.39 C945.815006,254.670001 947.057493,255.002498 948.4225,255.3875 C949.787507,255.772502 951.204993,256.104999 952.675,256.385 C954.145007,256.665001 955.509994,256.805 956.77,256.805 C959.080012,256.805 961.319989,256.455004 963.49,255.755 C965.660011,255.054996 967.567492,254.057506 969.2125,252.7625 C970.857508,251.467494 972.187495,249.892509 973.2025,248.0375 C974.217505,246.182491 974.725,244.100012 974.725,241.79 C974.725,238.429983 973.74501,235.665011 971.785,233.495 C969.82499,231.324989 966.955019,229.575007 963.175,228.245 L954.25,225.2 C952.499991,224.569997 951.100005,223.922503 950.05,223.2575 C948.999995,222.592497 948.230002,221.927503 947.74,221.2625 C947.249998,220.597497 946.935001,219.950003 946.795,219.32 C946.654999,218.689997 946.585,218.130002 946.585,217.64 C946.585,215.259988 947.54749,213.457506 949.4725,212.2325 C951.39751,211.007494 953.514988,210.395 955.825,210.395 C957.995011,210.395 959.814993,210.727497 961.285,211.3925 C962.755007,212.057503 963.997495,212.967494 965.0125,214.1225 C966.027505,215.277506 966.902496,216.624992 967.6375,218.165 C968.372504,219.705008 969.089996,221.314992 969.79,222.995 L971.155,222.995 L971.155,210.185 L969.685,210.185 C969.544999,210.535002 969.370001,210.849999 969.16,211.13 C968.949999,211.410001 968.460004,211.55 967.69,211.55 C967.269998,211.55 966.692504,211.410001 965.9575,211.13 C965.222496,210.849999 964.382505,210.552502 963.4375,210.2375 C962.492495,209.922498 961.442506,209.625001 960.2875,209.345 C959.132494,209.064999 957.890007,208.925 956.56,208.925 C954.039987,208.925 951.712511,209.327496 949.5775,210.1325 C947.442489,210.937504 945.622508,212.022493 944.1175,213.3875 C942.612492,214.752507 941.440004,216.344991 940.6,218.165 C939.759996,219.985009 939.34,221.90999 939.34,223.94 C939.34,225.830009 939.654997,227.457493 940.285,228.8225 C940.915003,230.187507 941.702495,231.359995 942.6475,232.34 C943.592505,233.320005 944.624994,234.107497 945.745,234.7025 C946.865006,235.297503 947.914995,235.769998 948.895,236.12 L957.4,239.27 C959.290009,239.970003 960.777495,240.652497 961.8625,241.3175 C962.947505,241.982503 963.769997,242.664997 964.33,243.365 C964.890003,244.065003 965.257499,244.747497 965.4325,245.4125 C965.607501,246.077503 965.695,246.724997 965.695,247.355 C965.695,249.38501 965.327504,250.942495 964.5925,252.0275 C963.857496,253.112505 962.982505,253.917497 961.9675,254.4425 C960.952495,254.967503 959.920005,255.265 958.87,255.335 C957.819995,255.405 956.980003,255.44 956.35,255.44 C953.899988,255.44 951.835008,255.002504 950.155,254.1275 C948.474992,253.252496 947.040006,252.115007 945.85,250.715 C944.659994,249.314993 943.627504,247.705009 942.7525,245.885 C941.877496,244.064991 941.020004,242.17501 940.18,240.215 L938.71,240.215 Z"></path>
        </g>
    </g>
</svg>