<?xml version="1.0" encoding="utf-8"?>
<!DOCTYPE svg PUBLIC "-//W3C//DTD SVG 1.1//EN" "http://www.w3.org/Graphics/SVG/1.1/DTD/svg11.dtd">
<svg version="1.1" id="Vrstva_1" xmlns:sketch="http://www.bohemiancoding.com/sketch/ns"
	 xmlns="http://www.w3.org/2000/svg" xmlns:xlink="http://www.w3.org/1999/xlink" x="0px" y="0px" width="19.912px"
	 height="14.223px" viewBox="19.912 23.176 19.912 14.223" enable-background="new 19.912 23.176 19.912 14.223"
	 xml:space="preserve">
<g>
	<path d="M39,24.824L38.176,24v12.574L39,35.75H21.029l0.819,0.73c-0.002-0.02-0.006-0.066-0.011-0.139
		c-0.053-0.838,0.028-1.83,0.347-2.752c0.593-1.717,1.835-2.699,4.083-2.699H39c0.455,0,0.824-0.369,0.824-0.824
		c0-0.456-0.369-0.824-0.824-0.824H26.267c-2.986,0-4.829,1.458-5.641,3.808c-0.401,1.162-0.5,2.358-0.434,3.395
		c0.006,0.102,0.013,0.177,0.019,0.223l0.083,0.73h0.735H39h0.824v-0.824V24v-0.824H39H27.015c-0.455,0-0.824,0.369-0.824,0.824
		s0.369,0.824,0.824,0.824H39z M30.327,34.957c0.678,0,1.228-0.582,1.228-1.3s-0.55-1.3-1.228-1.3s-1.227,0.582-1.227,1.3
		S29.649,34.957,30.327,34.957z"/>
</g>
</svg>
