<?xml version="1.0" encoding="UTF-8" standalone="no"?>
<svg width="181px" height="56px" viewBox="0 0 181 56" version="1.1" xmlns="http://www.w3.org/2000/svg" xmlns:xlink="http://www.w3.org/1999/xlink" xmlns:sketch="http://www.bohemiancoding.com/sketch/ns">
    <g stroke="none" stroke-width="1" fill="none" fill-rule="evenodd">
        <g fill="#000000">
            <path d="M23.5,3 L45,15.5 L45,40.5 L23.5,53 L2,40.5 L2,15.5 L23.5,3 Z M10.8092477,20.7419355 L10.8092477,35.2580645 L35.6353092,20.7419355 L35.6353092,35.2553811 L10.8092477,20.7419355 Z M68.7257311,27.728 L70.6097311,27.728 L70.6097311,30.704 C69.7777269,31.6320046 68.6257385,32.096 67.1537311,32.096 C65.9217249,32.096 64.8877353,31.6880041 64.0517311,30.872 C63.2157269,30.0559959 62.7977311,29.0260062 62.7977311,27.782 C62.7977311,26.5379938 63.2237268,25.5000042 64.0757311,24.668 C64.9277354,23.8359958 65.9557251,23.42 67.1597311,23.42 C68.3637371,23.42 69.4097267,23.815996 70.2977311,24.608 L69.3257311,26.012 C68.9497292,25.6839984 68.6037327,25.4580006 68.2877311,25.334 C67.9717295,25.2099994 67.6297329,25.148 67.2617311,25.148 C66.5497275,25.148 65.9497335,25.3899976 65.4617311,25.874 C64.9737287,26.3580024 64.7297311,26.995996 64.7297311,27.788 C64.7297311,28.580004 64.9637288,29.2139976 65.4317311,29.69 C65.8997334,30.1660024 66.4577279,30.404 67.1057311,30.404 C67.7537343,30.404 68.2937289,30.2800012 68.7257311,30.032 L68.7257311,27.728 Z M80.0426542,23.612 L80.0426542,25.28 L75.8666542,25.28 L75.8666542,27.008 L79.6226542,27.008 L79.6226542,28.604 L75.8666542,28.604 L75.8666542,30.344 L80.1746542,30.344 L80.1746542,32 L73.9946542,32 L73.9946542,23.612 L80.0426542,23.612 Z M89.4275773,23.612 L91.2995773,23.612 L91.2995773,32 L89.4275773,32 L85.4315773,26.744 L85.4315773,32 L83.5595773,32 L83.5595773,23.612 L85.3115773,23.612 L89.4275773,29.012 L89.4275773,23.612 Z M98.6325004,25.232 L98.6325004,32 L96.7605004,32 L96.7605004,25.232 L94.3845004,25.232 L94.3845004,23.612 L101.0085,23.612 L101.0085,25.232 L98.6325004,25.232 Z M105.983424,25.286 C105.803423,25.4340007 105.713424,25.6299988 105.713424,25.874 C105.713424,26.1180012 105.823422,26.3119993 106.043424,26.456 C106.263425,26.6000007 106.77142,26.769999 107.567424,26.966 C108.363428,27.162001 108.981421,27.455998 109.421424,27.848 C109.861426,28.240002 110.081424,28.8119962 110.081424,29.564 C110.081424,30.3160038 109.799426,30.9259977 109.235424,31.394 C108.671421,31.8620023 107.929428,32.096 107.009424,32.096 C105.681417,32.096 104.485429,31.6040049 103.421424,30.62 L104.537424,29.252 C105.441428,30.044004 106.27742,30.44 107.045424,30.44 C107.389425,30.44 107.659423,30.3660007 107.855424,30.218 C108.051425,30.0699993 108.149424,29.8700013 108.149424,29.618 C108.149424,29.3659987 108.045425,29.1660007 107.837424,29.018 C107.629423,28.8699993 107.217427,28.7200008 106.601424,28.568 C105.625419,28.3359988 104.911426,28.0340019 104.459424,27.662 C104.007421,27.2899981 103.781424,26.706004 103.781424,25.91 C103.781424,25.113996 104.067421,24.5000022 104.639424,24.068 C105.211426,23.6359978 105.925419,23.42 106.781424,23.42 C107.341426,23.42 107.901421,23.515999 108.461424,23.708 C109.021426,23.900001 109.509421,24.1719982 109.925424,24.524 L108.977424,25.892 C108.24942,25.3399972 107.497427,25.064 106.721424,25.064 C106.409422,25.064 106.163424,25.1379993 105.983424,25.286 Z M120.24127,25.286 C120.061269,25.4340007 119.97127,25.6299988 119.97127,25.874 C119.97127,26.1180012 120.081269,26.3119993 120.30127,26.456 C120.521271,26.6000007 121.029266,26.769999 121.82527,26.966 C122.621274,27.162001 123.239268,27.455998 123.67927,27.848 C124.119272,28.240002 124.33927,28.8119962 124.33927,29.564 C124.33927,30.3160038 124.057273,30.9259977 123.49327,31.394 C122.929267,31.8620023 122.187274,32.096 121.26727,32.096 C119.939263,32.096 118.743275,31.6040049 117.67927,30.62 L118.79527,29.252 C119.699274,30.044004 120.535266,30.44 121.30327,30.44 C121.647272,30.44 121.917269,30.3660007 122.11327,30.218 C122.309271,30.0699993 122.40727,29.8700013 122.40727,29.618 C122.40727,29.3659987 122.303271,29.1660007 122.09527,29.018 C121.887269,28.8699993 121.475273,28.7200008 120.85927,28.568 C119.883265,28.3359988 119.169272,28.0340019 118.71727,27.662 C118.265268,27.2899981 118.03927,26.706004 118.03927,25.91 C118.03927,25.113996 118.325267,24.5000022 118.89727,24.068 C119.469273,23.6359978 120.183266,23.42 121.03927,23.42 C121.599273,23.42 122.159267,23.515999 122.71927,23.708 C123.279273,23.900001 123.767268,24.1719982 124.18327,24.524 L123.23527,25.892 C122.507266,25.3399972 121.755274,25.064 120.97927,25.064 C120.667268,25.064 120.421271,25.1379993 120.24127,25.286 Z M132.860193,23.612 L134.732193,23.612 L134.732193,32 L132.860193,32 L132.860193,28.7 L129.524193,28.7 L129.524193,32 L127.652193,32 L127.652193,23.612 L129.524193,23.612 L129.524193,27.116 L132.860193,27.116 L132.860193,23.612 Z M138.513116,23.612 L140.385116,23.612 L140.385116,32 L138.513116,32 L138.513116,23.612 Z M150.970039,26.396 C150.970039,27.7400067 150.438044,28.607998 149.374039,29 L151.498039,32 L149.194039,32 L147.334039,29.324 L146.038039,29.324 L146.038039,32 L144.166039,32 L144.166039,23.612 L147.346039,23.612 C148.650046,23.612 149.580036,23.8319978 150.136039,24.272 C150.692042,24.7120022 150.970039,25.4199951 150.970039,26.396 Z M148.714039,27.392 C148.94604,27.183999 149.062039,26.8540023 149.062039,26.402 C149.062039,25.9499977 148.94204,25.6400008 148.702039,25.472 C148.462038,25.3039992 148.042042,25.22 147.442039,25.22 L146.038039,25.22 L146.038039,27.704 L147.406039,27.704 C148.046042,27.704 148.482038,27.600001 148.714039,27.392 Z M157.990962,25.232 L157.990962,32 L156.118962,32 L156.118962,25.232 L153.742962,25.232 L153.742962,23.612 L160.366962,23.612 L160.366962,25.232 L157.990962,25.232 Z M165.341885,25.286 C165.161884,25.4340007 165.071885,25.6299988 165.071885,25.874 C165.071885,26.1180012 165.181884,26.3119993 165.401885,26.456 C165.621886,26.6000007 166.129881,26.769999 166.925885,26.966 C167.721889,27.162001 168.339883,27.455998 168.779885,27.848 C169.219888,28.240002 169.439885,28.8119962 169.439885,29.564 C169.439885,30.3160038 169.157888,30.9259977 168.593885,31.394 C168.029883,31.8620023 167.28789,32.096 166.367885,32.096 C165.039879,32.096 163.843891,31.6040049 162.779885,30.62 L163.895885,29.252 C164.79989,30.044004 165.635882,30.44 166.403885,30.44 C166.747887,30.44 167.017884,30.3660007 167.213885,30.218 C167.409886,30.0699993 167.507885,29.8700013 167.507885,29.618 C167.507885,29.3659987 167.403886,29.1660007 167.195885,29.018 C166.987884,28.8699993 166.575888,28.7200008 165.959885,28.568 C164.983881,28.3359988 164.269888,28.0340019 163.817885,27.662 C163.365883,27.2899981 163.139885,26.706004 163.139885,25.91 C163.139885,25.113996 163.425883,24.5000022 163.997885,24.068 C164.569888,23.6359978 165.283881,23.42 166.139885,23.42 C166.699888,23.42 167.259883,23.515999 167.819885,23.708 C168.379888,23.900001 168.867883,24.1719982 169.283885,24.524 L168.335885,25.892 C167.607882,25.3399972 166.855889,25.064 166.079885,25.064 C165.767884,25.064 165.521886,25.1379993 165.341885,25.286 Z"></path>
        </g>
    </g>
</svg>