<?xml version="1.0" encoding="UTF-8" standalone="no"?>
<svg width="129px" height="187px" viewBox="0 0 129 187" version="1.1" xmlns="http://www.w3.org/2000/svg" xmlns:xlink="http://www.w3.org/1999/xlink" xmlns:sketch="http://www.bohemiancoding.com/sketch/ns">
    <g stroke="none" stroke-width="1" fill="none" fill-rule="evenodd">
        <g fill="#424242">
            <path d="M38.5823,88.1331 L63.3343,74.3821 L38.5823,60.6331 L38.5823,88.1331 Z M88.0823,88.128 L88.0823,60.633 L63.3343,74.382 L88.0823,88.128 Z M64.0826,19.7652 L16.9996,47.0762 L16.9996,101.6892 L64.0826,129.0002 L111.1646,101.6892 L111.1646,47.0762 L64.0826,19.7652 Z M18.5006,100.8252 L18.5006,47.9392 L64.0826,21.5002 L109.6646,47.9392 L109.6646,100.8252 L64.0826,127.2662 L18.5006,100.8252 Z M15.928,153.308 L17.812,153.308 L17.812,156.284 C16.9799958,157.212005 15.8280074,157.676 14.356,157.676 C13.1239938,157.676 12.0900042,157.268004 11.254,156.452 C10.4179958,155.635996 10,154.606006 10,153.362 C10,152.117994 10.4259957,151.080004 11.278,150.248 C12.1300043,149.415996 13.157994,149 14.362,149 C15.566006,149 16.6119956,149.395996 17.5,150.188 L16.528,151.592 C16.1519981,151.263998 15.8060016,151.038001 15.49,150.914 C15.1739984,150.789999 14.8320018,150.728 14.464,150.728 C13.7519964,150.728 13.1520024,150.969998 12.664,151.454 C12.1759976,151.938002 11.932,152.575996 11.932,153.368 C11.932,154.160004 12.1659977,154.793998 12.634,155.27 C13.1020023,155.746002 13.6599968,155.984 14.308,155.984 C14.9560032,155.984 15.4959978,155.860001 15.928,155.612 L15.928,153.308 Z M27.048,149 L27.048,150.668 L22.872,150.668 L22.872,152.396 L26.628,152.396 L26.628,153.992 L22.872,153.992 L22.872,155.732 L27.18,155.732 L27.18,157.388 L21,157.388 L21,149 L27.048,149 Z M36.868,149 L38.74,149 L38.74,157.388 L36.868,157.388 L32.872,152.132 L32.872,157.388 L31,157.388 L31,149 L32.752,149 L36.868,154.4 L36.868,149 Z M46.248,150.62 L46.248,157.388 L44.376,157.388 L44.376,150.62 L42,150.62 L42,149 L48.624,149 L48.624,150.62 L46.248,150.62 Z M53.562,150.866 C53.3819991,151.014001 53.292,151.209999 53.292,151.454 C53.292,151.698001 53.4019989,151.891999 53.622,152.036 C53.8420011,152.180001 54.349996,152.349999 55.146,152.546 C55.942004,152.742001 56.5599978,153.035998 57,153.428 C57.4400022,153.820002 57.66,154.391996 57.66,155.144 C57.66,155.896004 57.3780028,156.505998 56.814,156.974 C56.2499972,157.442002 55.5080046,157.676 54.588,157.676 C53.2599934,157.676 52.0640053,157.184005 51,156.2 L52.116,154.832 C53.0200045,155.624004 53.8559962,156.02 54.624,156.02 C54.9680017,156.02 55.237999,155.946001 55.434,155.798 C55.630001,155.649999 55.728,155.450001 55.728,155.198 C55.728,154.945999 55.624001,154.746001 55.416,154.598 C55.207999,154.449999 54.7960031,154.300001 54.18,154.148 C53.2039951,153.915999 52.4900023,153.614002 52.038,153.242 C51.5859977,152.869998 51.36,152.286004 51.36,151.49 C51.36,150.693996 51.6459971,150.080002 52.218,149.648 C52.7900029,149.215998 53.5039957,149 54.36,149 C54.9200028,149 55.4799972,149.095999 56.04,149.288 C56.6000028,149.480001 57.0879979,149.751998 57.504,150.104 L56.556,151.472 C55.8279964,150.919997 55.0760039,150.644 54.3,150.644 C53.9879984,150.644 53.7420009,150.717999 53.562,150.866 Z M67.562,150.866 C67.3819991,151.014001 67.292,151.209999 67.292,151.454 C67.292,151.698001 67.4019989,151.891999 67.622,152.036 C67.8420011,152.180001 68.349996,152.349999 69.146,152.546 C69.942004,152.742001 70.5599978,153.035998 71,153.428 C71.4400022,153.820002 71.66,154.391996 71.66,155.144 C71.66,155.896004 71.3780028,156.505998 70.814,156.974 C70.2499972,157.442002 69.5080046,157.676 68.588,157.676 C67.2599934,157.676 66.0640053,157.184005 65,156.2 L66.116,154.832 C67.0200045,155.624004 67.8559962,156.02 68.624,156.02 C68.9680017,156.02 69.237999,155.946001 69.434,155.798 C69.630001,155.649999 69.728,155.450001 69.728,155.198 C69.728,154.945999 69.624001,154.746001 69.416,154.598 C69.207999,154.449999 68.7960031,154.300001 68.18,154.148 C67.2039951,153.915999 66.4900023,153.614002 66.038,153.242 C65.5859977,152.869998 65.36,152.286004 65.36,151.49 C65.36,150.693996 65.6459971,150.080002 66.218,149.648 C66.7900029,149.215998 67.5039957,149 68.36,149 C68.9200028,149 69.4799972,149.095999 70.04,149.288 C70.6000028,149.480001 71.0879979,149.751998 71.504,150.104 L70.556,151.472 C69.8279964,150.919997 69.0760039,150.644 68.3,150.644 C67.9879984,150.644 67.7420009,150.717999 67.562,150.866 Z M80.208,149 L82.08,149 L82.08,157.388 L80.208,157.388 L80.208,154.088 L76.872,154.088 L76.872,157.388 L75,157.388 L75,149 L76.872,149 L76.872,152.504 L80.208,152.504 L80.208,149 Z M86,149 L87.872,149 L87.872,157.388 L86,157.388 L86,149 Z M97.804,151.784 C97.804,153.128007 97.2720053,153.995998 96.208,154.388 L98.332,157.388 L96.028,157.388 L94.168,154.712 L92.872,154.712 L92.872,157.388 L91,157.388 L91,149 L94.18,149 C95.4840065,149 96.4139972,149.219998 96.97,149.66 C97.5260028,150.100002 97.804,150.807995 97.804,151.784 Z M95.5724618,152.768509 C95.8041561,152.560842 95.9200015,152.231377 95.9200015,151.780103 C95.9200015,151.328828 95.8001614,151.019331 95.5604777,150.8516 C95.320794,150.68387 94.9013537,150.600006 94.3021444,150.600006 L92.9000015,150.600006 L92.9000015,153.080006 L94.266192,153.080006 C94.9053486,153.080006 95.3407675,152.976175 95.5724618,152.768509 Z M105.248,150.62 L105.248,157.388 L103.376,157.388 L103.376,150.62 L101,150.62 L101,149 L107.624,149 L107.624,150.62 L105.248,150.62 Z M112.562,150.866 C112.381999,151.014001 112.292,151.209999 112.292,151.454 C112.292,151.698001 112.401999,151.891999 112.622,152.036 C112.842001,152.180001 113.349996,152.349999 114.146,152.546 C114.942004,152.742001 115.559998,153.035998 116,153.428 C116.440002,153.820002 116.66,154.391996 116.66,155.144 C116.66,155.896004 116.378003,156.505998 115.814,156.974 C115.249997,157.442002 114.508005,157.676 113.588,157.676 C112.259993,157.676 111.064005,157.184005 110,156.2 L111.116,154.832 C112.020005,155.624004 112.855996,156.02 113.624,156.02 C113.968002,156.02 114.237999,155.946001 114.434,155.798 C114.630001,155.649999 114.728,155.450001 114.728,155.198 C114.728,154.945999 114.624001,154.746001 114.416,154.598 C114.207999,154.449999 113.796003,154.300001 113.18,154.148 C112.203995,153.915999 111.490002,153.614002 111.038,153.242 C110.585998,152.869998 110.36,152.286004 110.36,151.49 C110.36,150.693996 110.645997,150.080002 111.218,149.648 C111.790003,149.215998 112.503996,149 113.36,149 C113.920003,149 114.479997,149.095999 115.04,149.288 C115.600003,149.480001 116.087998,149.751998 116.504,150.104 L115.556,151.472 C114.827996,150.919997 114.076004,150.644 113.3,150.644 C112.987998,150.644 112.742001,150.717999 112.562,150.866 Z"></path>
        </g>
    </g>
</svg>