<?xml version="1.0" encoding="utf-8"?>
<!DOCTYPE svg PUBLIC "-//W3C//DTD SVG 1.1//EN" "http://www.w3.org/Graphics/SVG/1.1/DTD/svg11.dtd">
<svg version="1.1" id="Vrstva_1" xmlns:sketch="http://www.bohemiancoding.com/sketch/ns"
	 xmlns="http://www.w3.org/2000/svg" xmlns:xlink="http://www.w3.org/1999/xlink" x="0px" y="0px" width="21.708px"
	 height="14.96px" viewBox="19.19 23.85 21.708 14.96" enable-background="new 19.19 23.85 21.708 14.96" xml:space="preserve">
<g>
	<path d="M21.6,38.811h16.438l2.844-13.989c0.089-0.438-0.194-0.866-0.633-0.955c-0.438-0.089-0.865,0.194-0.955,0.632L36.5,37
		L23,37.025l-2.201-12.502c-0.075-0.441-0.494-0.737-0.935-0.662c-0.441,0.075-0.737,0.494-0.662,0.935L21.6,38.811z M23.196,25.57
		c0.207,0,0.463,0.258,0.463,0.47c0,0.708,0.657,1.37,1.363,1.37c0.706,0,1.363-0.663,1.363-1.37c0-0.212,0.256-0.47,0.463-0.47
		c0.208,0,0.463,0.258,0.463,0.47c0,0.708,0.657,1.37,1.363,1.37c0.706,0,1.363-0.663,1.363-1.37c0-0.212,0.256-0.47,0.463-0.47
		s0.463,0.258,0.463,0.47c0,0.708,0.657,1.37,1.363,1.37c0.705,0,1.363-0.663,1.363-1.37c0-0.212,0.256-0.47,0.463-0.47
		s0.463,0.258,0.463,0.47c0,0.708,0.657,1.37,1.363,1.37c0.705,0,1.363-0.663,1.363-1.37c0-0.212,0.256-0.47,0.463-0.47
		c0.248,0,0.449-0.201,0.449-0.45s-0.201-0.45-0.449-0.45c-0.706,0-1.363,0.662-1.363,1.37c0,0.212-0.256,0.47-0.463,0.47
		s-0.463-0.258-0.463-0.47c0-0.708-0.658-1.37-1.363-1.37c-0.706,0-1.363,0.662-1.363,1.37c0,0.212-0.256,0.47-0.463,0.47
		s-0.463-0.258-0.463-0.47c0-0.708-0.658-1.37-1.363-1.37c-0.706,0-1.363,0.662-1.363,1.37c0,0.212-0.256,0.47-0.463,0.47
		c-0.207,0-0.463-0.258-0.463-0.47c0-0.708-0.657-1.37-1.363-1.37c-0.706,0-1.363,0.662-1.363,1.37c0,0.212-0.256,0.47-0.463,0.47
		c-0.208,0-0.463-0.258-0.463-0.47c0-0.708-0.657-1.37-1.363-1.37c-0.706,0-1.363,0.662-1.363,1.37c0,0.249,0.202,0.45,0.45,0.45
		s0.45-0.201,0.45-0.45C22.732,25.828,22.988,25.57,23.196,25.57z M28.781,32.229c0.23,0.039,0.413,0.146,0.548,0.318
		c0.135,0.174,0.203,0.387,0.203,0.643c0,0.166-0.031,0.316-0.092,0.454c-0.062,0.137-0.148,0.253-0.262,0.351
		c-0.113,0.098-0.249,0.172-0.408,0.225c-0.158,0.052-0.334,0.078-0.529,0.078c-0.274,0-0.514-0.051-0.721-0.154
		c-0.207-0.102-0.368-0.247-0.483-0.435l0.319-0.318c0.083,0.147,0.194,0.264,0.335,0.349c0.14,0.084,0.324,0.127,0.551,0.127
		c0.248,0,0.443-0.057,0.586-0.168c0.142-0.111,0.213-0.281,0.213-0.508s-0.076-0.407-0.229-0.543
		c-0.153-0.135-0.375-0.201-0.667-0.201h-0.141v-0.4h0.151c0.259,0,0.458-0.063,0.597-0.186c0.139-0.125,0.208-0.282,0.208-0.473
		c0-0.191-0.067-0.334-0.2-0.428c-0.133-0.093-0.3-0.14-0.502-0.14c-0.198,0-0.372,0.042-0.521,0.127s-0.266,0.202-0.349,0.354
		l-0.292-0.302c0.047-0.091,0.111-0.172,0.192-0.246s0.174-0.139,0.281-0.191c0.106-0.055,0.221-0.096,0.346-0.125
		c0.124-0.029,0.254-0.043,0.391-0.043c0.169,0,0.325,0.023,0.467,0.07s0.265,0.111,0.367,0.194s0.182,0.184,0.238,0.302
		c0.056,0.119,0.083,0.251,0.083,0.395c0,0.108-0.015,0.211-0.046,0.309c-0.031,0.097-0.076,0.186-0.135,0.264
		c-0.06,0.08-0.132,0.146-0.216,0.197C28.98,32.176,28.885,32.211,28.781,32.229z M33.193,31.921c0,0.237-0.035,0.456-0.104,0.655
		c-0.068,0.201-0.164,0.373-0.285,0.52c-0.123,0.146-0.268,0.259-0.436,0.34c-0.167,0.081-0.348,0.121-0.543,0.121
		c-0.197,0-0.381-0.04-0.548-0.121s-0.312-0.194-0.432-0.34c-0.12-0.146-0.216-0.318-0.284-0.52
		c-0.068-0.199-0.102-0.418-0.102-0.655s0.034-0.456,0.102-0.656c0.068-0.2,0.164-0.372,0.284-0.519
		c0.12-0.146,0.265-0.26,0.432-0.343c0.167-0.083,0.351-0.124,0.548-0.124c0.195,0,0.376,0.042,0.543,0.124
		c0.168,0.083,0.313,0.197,0.436,0.343c0.121,0.146,0.217,0.318,0.285,0.519S33.193,31.684,33.193,31.921z M32.647,31.436
		c-0.044-0.148-0.104-0.275-0.184-0.381c-0.079-0.107-0.173-0.188-0.28-0.246c-0.108-0.058-0.228-0.086-0.357-0.086
		c-0.133,0-0.254,0.028-0.364,0.086c-0.109,0.058-0.203,0.139-0.28,0.246c-0.078,0.105-0.139,0.232-0.182,0.381
		c-0.043,0.146-0.064,0.309-0.064,0.485c0,0.18,0.021,0.343,0.064,0.489c0.043,0.145,0.104,0.27,0.182,0.375
		c0.077,0.104,0.171,0.186,0.28,0.242c0.11,0.059,0.231,0.087,0.364,0.087c0.13,0,0.249-0.028,0.357-0.087
		c0.107-0.057,0.201-0.139,0.28-0.242c0.079-0.105,0.14-0.23,0.184-0.375c0.043-0.146,0.065-0.31,0.065-0.489
		C32.713,31.744,32.69,31.582,32.647,31.436z"/>
</g>
</svg>
