<?xml version="1.0" encoding="UTF-8" standalone="no"?>
<svg width="35px" height="37px" viewBox="0 0 35 37" version="1.1" xmlns="http://www.w3.org/2000/svg" xmlns:xlink="http://www.w3.org/1999/xlink" xmlns:sketch="http://www.bohemiancoding.com/sketch/ns">
    <g stroke="none" stroke-width="1" fill="none" fill-rule="evenodd">
        <g transform="translate(-11.000000, -9.000000)" fill="#FFFFFF">
            <path d="M45.555253,25.8223598 C45.2195885,24.5203429 44.7160918,23.3590642 44.056052,22.3716386 C43.951439,22.1872489 43.6978092,21.9524343 43.0896995,21.9524343 C42.9135885,21.9524343 42.7103836,21.9757653 42.4996525,22.0118906 C42.2249495,14.5362061 34.9645118,9 28.4551797,9 C21.9496107,9 14.6936886,14.52868 14.4114595,21.997591 C14.2293277,21.970497 14.0569798,21.9524343 13.9102206,21.9524343 C13.3051214,21.9524343 13.0529968,22.1940224 12.9498891,22.3626073 C12.2868388,23.3537959 11.7803317,24.5173324 11.443162,25.8231124 C11.0533095,27.35016 10.9193447,28.9682735 11.046536,30.6315437 C11.1699642,32.2970717 11.5440118,33.8775547 12.158895,35.327836 C12.6827122,36.565881 13.356299,37.6391042 14.1600875,38.5174012 C14.2662056,38.6491081 14.428017,38.7288849 14.6003649,38.7288849 C14.6154171,38.7288849 14.6297167,38.7281323 14.6447689,38.7273796 L15.5223133,38.6619025 C15.9354967,38.6302928 16.2606246,38.4323562 16.4404986,38.1290539 C17.0538765,38.1140017 17.5995195,37.8806923 17.9810932,37.4682615 C18.3950292,37.0219633 18.5937185,36.3950383 18.5417884,35.7033889 L18.1985978,31.1380509 C17.9585149,27.9417122 17.7124111,24.6648442 17.6619862,23.9746999 C17.565652,22.7057979 16.7513269,22.0209219 15.5433864,22.1684337 C15.7225078,15.2602178 22.4342922,10.1289164 28.4551797,10.1289164 C34.4715516,10.1289164 41.1765625,15.2534443 41.3662204,22.1526288 C40.196663,22.0457581 39.4305051,22.7366549 39.337934,23.9754525 C39.260415,25.023087 38.7305769,32.0750515 38.4573792,35.7033889 C38.4062016,36.3957909 38.6056435,37.0234685 39.0188269,37.4690142 C39.4011533,37.8806923 39.945291,38.1140017 40.5586689,38.1290539 C40.6971493,38.3616107 40.9214274,38.529443 41.2051617,38.6114776 C39.9618484,39.86608 38.1360143,41.405922 35.9797839,42.1284285 C35.5620849,41.3186191 34.7259341,40.757924 33.7535608,40.757924 C32.368004,40.757924 31.2405928,41.8853352 31.2405928,43.2708919 C31.2405928,44.6564487 32.368004,45.7838599 33.7535608,45.7838599 C35.1398701,45.7838599 36.2672813,44.6564487 36.2672813,43.2708919 C36.2672813,43.2550871 36.2627656,43.2400349 36.262013,43.22423 C39.7496121,42.0855297 42.3777296,39.0645494 43.3862282,37.9010128 C43.4374058,37.8430618 43.4727785,37.7775846 43.4953568,37.709097 C44.0139057,37.0046532 44.4677301,36.2106487 44.8410252,35.327836 C45.4544031,33.8805652 45.8284507,32.3000822 45.9533841,30.633049 C46.0805754,28.9652631 45.9473633,27.3471496 45.555253,25.8223598 L45.555253,25.8223598 Z M15.8775456,23.2649878 C16.0867715,23.2649878 16.4758713,23.2649878 16.5360802,24.0589924 C16.5865051,24.7468788 16.8326089,28.025252 17.0726918,31.2223433 L17.4151298,35.7876813 C17.443729,36.1639868 17.3511579,36.4876095 17.1532212,36.701351 C16.9710893,36.8970298 16.7016546,37.0016428 16.3742689,37.0016428 C16.3072865,37.0016428 16.2387989,36.9971271 16.2004157,36.993364 C16.1838583,36.9903536 16.0988132,36.9783118 16.0815032,36.9768066 C15.9287232,36.9640122 15.7541174,37.0136845 15.6374627,37.1205553 C15.5200554,37.227426 15.4402787,37.3771956 15.4402787,37.5359965 L14.8381899,37.5811532 C14.1886867,36.8300475 13.6377755,35.9254091 13.1982507,34.8875586 C12.6315346,33.550169 12.2860862,32.0908564 12.172442,30.5472513 C12.0565399,29.0269772 12.1822259,27.4901457 12.5367057,26.1038363 C12.8309765,24.9643833 13.2644804,23.9491112 13.8266808,23.0843612 C13.9305411,23.0745773 14.1427774,23.0888769 14.4189856,23.140807 C14.5394034,23.3688481 14.805075,23.4900185 15.0617154,23.4215309 L15.4237212,23.330465 C15.5930587,23.2868135 15.7458387,23.2649878 15.8775456,23.2649878 L15.8775456,23.2649878 Z M33.7535608,44.6549434 C32.9904133,44.6549434 32.3695092,44.0340394 32.3695092,43.2708919 C32.3695092,42.5077444 32.9904133,41.8868404 33.7535608,41.8868404 C34.5174609,41.8868404 35.1383649,42.5077444 35.1383649,43.2708919 C35.1383649,44.0340394 34.5174609,44.6549434 33.7535608,44.6549434 L33.7535608,44.6549434 Z M44.8274782,30.5480039 C44.7130813,32.0938668 44.3668803,33.5531794 43.8024221,34.8875586 C43.3621447,35.9261617 42.8112335,36.8323053 42.160225,37.5819058 L41.5325475,37.539007 C41.5325475,37.3802061 41.4655651,37.2289313 41.3481578,37.1213079 C41.2442975,37.0264789 41.1088275,36.9745488 40.9688419,36.9745488 C40.9515318,36.9745488 40.9334692,36.9753014 40.9161591,36.9775592 C40.9108908,36.9775592 40.8378876,36.9880958 40.8326193,36.9880958 C40.4141676,37.0385207 40.0657087,36.9376708 39.846699,36.701351 C39.6480097,36.4876095 39.5546859,36.1639868 39.5832851,35.7876813 C39.8572355,32.1593439 40.3870736,25.1066268 40.4638399,24.059745 C40.5240488,23.2649878 40.9131487,23.2649878 41.1216219,23.2649878 C41.2540814,23.2649878 41.4068614,23.2868135 41.5792093,23.3312176 L41.93971,23.4215309 C42.1948451,23.4877607 42.4605168,23.3680955 42.5816871,23.140807 C42.8368222,23.0911347 43.0663686,23.0753299 43.1739919,23.0843612 C43.7354397,23.9476059 44.1674384,24.9636307 44.4617093,26.1038363 C44.8176942,27.4878878 44.9441329,29.0247194 44.8274782,30.5480039 L44.8274782,30.5480039 Z"></path>
        </g>
    </g>
</svg>