<?xml version="1.0" encoding="utf-8"?>
<!DOCTYPE svg PUBLIC "-//W3C//DTD SVG 1.1//EN" "http://www.w3.org/Graphics/SVG/1.1/DTD/svg11.dtd">
<svg version="1.1" id="Vrstva_1" xmlns:sketch="http://www.bohemiancoding.com/sketch/ns"
	 xmlns="http://www.w3.org/2000/svg" xmlns:xlink="http://www.w3.org/1999/xlink" x="0px" y="0px" width="24px" height="25px"
	 viewBox="18 18 24 25" enable-background="new 18 18 24 25" xml:space="preserve">
<g>
	<path d="M41.695,29.433c-0.23-0.885-0.576-1.674-1.028-2.345
		c-0.071-0.125-0.245-0.285-0.663-0.285c-0.12,0-0.26,0.016-0.404,0.04C39.412,21.763,34.433,18,29.969,18
		c-4.461,0-9.437,3.757-9.63,8.834c-0.125-0.019-0.243-0.031-0.344-0.031c-0.415,0-0.588,0.164-0.659,0.279
		c-0.455,0.673-0.802,1.464-1.033,2.352c-0.267,1.038-0.359,2.138-0.272,3.268c0.085,1.133,0.341,2.207,0.763,3.192
		c0.359,0.841,0.821,1.571,1.373,2.168c0.073,0.089,0.184,0.144,0.302,0.144c0.01,0,0.02,0,0.031-0.001l0.602-0.044
		c0.283-0.021,0.506-0.156,0.629-0.363c0.421-0.01,0.795-0.168,1.057-0.449c0.284-0.303,0.42-0.729,0.384-1.199l-0.235-3.103
		c-0.165-2.173-0.333-4.399-0.368-4.869c-0.066-0.862-0.625-1.328-1.453-1.228c0.123-4.695,4.725-8.183,8.854-8.183
		c4.125,0,8.723,3.483,8.853,8.172c-0.802-0.072-1.327,0.397-1.391,1.239c-0.053,0.712-0.416,5.505-0.604,7.97
		c-0.035,0.471,0.102,0.897,0.385,1.2c0.262,0.28,0.635,0.438,1.057,0.448c0.094,0.158,0.248,0.273,0.442,0.328
		c-0.853,0.854-2.104,1.899-3.583,2.391c-0.286-0.551-0.859-0.932-1.526-0.932c-0.95,0-1.724,0.767-1.724,1.708
		c0,0.942,0.773,1.708,1.724,1.708s1.724-0.766,1.724-1.708c0-0.011-0.003-0.021-0.004-0.032c2.392-0.773,4.193-2.826,4.885-3.617
		c0.035-0.039,0.061-0.084,0.076-0.131c0.355-0.479,0.666-1.018,0.922-1.618c0.421-0.983,0.678-2.058,0.764-3.19
		C42.055,31.569,41.964,30.47,41.695,29.433L41.695,29.433z M21.345,27.695c0.144,0,0.41,0,0.452,0.54
		c0.034,0.467,0.203,2.695,0.368,4.869l0.235,3.103c0.02,0.256-0.044,0.476-0.18,0.621c-0.125,0.133-0.31,0.204-0.534,0.204
		c-0.046,0-0.093-0.003-0.119-0.006c-0.011-0.002-0.069-0.01-0.082-0.012c-0.104-0.008-0.225,0.025-0.304,0.098
		c-0.081,0.073-0.135,0.176-0.135,0.283l-0.413,0.031c-0.445-0.512-0.823-1.126-1.125-1.832c-0.389-0.908-0.625-1.9-0.703-2.949
		c-0.08-1.033,0.006-2.078,0.25-3.02c0.202-0.774,0.499-1.464,0.885-2.052c0.071-0.006,0.217,0.003,0.406,0.039
		c0.083,0.155,0.265,0.237,0.441,0.191l0.248-0.062C21.149,27.71,21.254,27.695,21.345,27.695L21.345,27.695z M33.603,42.232
		c-0.523,0-0.949-0.422-0.949-0.94s0.426-0.94,0.949-0.94c0.524,0,0.95,0.422,0.95,0.94S34.127,42.232,33.603,42.232L33.603,42.232
		z M41.195,32.645c-0.078,1.051-0.314,2.043-0.702,2.949c-0.302,0.707-0.68,1.322-1.126,1.832l-0.431-0.029
		c0-0.107-0.046-0.211-0.126-0.283c-0.072-0.064-0.164-0.101-0.26-0.101c-0.013,0-0.025,0.001-0.037,0.002
		c-0.004,0-0.053,0.007-0.057,0.007c-0.287,0.035-0.526-0.033-0.676-0.194c-0.137-0.146-0.201-0.365-0.182-0.621
		c0.188-2.466,0.551-7.259,0.604-7.971c0.042-0.54,0.309-0.54,0.451-0.54c0.092,0,0.196,0.015,0.314,0.045l0.247,0.062
		c0.175,0.045,0.356-0.037,0.44-0.191c0.175-0.034,0.332-0.044,0.406-0.039c0.385,0.587,0.681,1.277,0.883,2.052
		C41.189,30.565,41.275,31.609,41.195,32.645L41.195,32.645z"/>
</g>
</svg>
